M48
; DRILL file {KiCad 9.0.7} date 2026-01-19T21:11:16+1000
; FORMAT={-:-/ absolute / metric / decimal}
; #@! TF.CreationDate,2026-01-19T21:11:16+10:00
; #@! TF.GenerationSoftware,Kicad,Pcbnew,9.0.7
; #@! TF.FileFunction,Plated,1,2,PTH
FMAT,2
METRIC
; #@! TA.AperFunction,Plated,PTH,ViaDrill
T1C0.300
; #@! TA.AperFunction,Plated,PTH,ComponentDrill
T2C0.300
; #@! TA.AperFunction,Plated,PTH,ComponentDrill
T3C0.600
; #@! TA.AperFunction,Plated,PTH,ComponentDrill
T4C0.650
; #@! TA.AperFunction,Plated,PTH,ComponentDrill
T5C1.000
; #@! TA.AperFunction,Plated,PTH,ComponentDrill
T6C1.020
%
G90
G05
T1
X50.45Y-69.9
X50.7Y-63.0
X50.9Y-83.1
X52.0Y-98.0
X52.6Y-76.9
X53.6Y-69.6
X55.29Y-87.638
X55.3Y-63.5
X56.997Y-63.497
X57.162Y-89.962
X58.0Y-65.0
X58.39Y-97.25
X61.3Y-72.4
X62.94Y-98.6
X63.0Y-62.0
X63.0Y-70.0
X63.8Y-52.1
X63.8Y-53.6
X65.54Y-95.35
X65.74Y-96.95
X66.94Y-99.9
X68.0Y-67.0
X68.0Y-75.0
X73.1Y-52.1
X73.1Y-53.6
X73.35Y-86.8
X77.075Y-97.95
X78.25Y-70.3
X79.625Y-97.55
X80.125Y-80.575
X80.701Y-89.65
X80.733Y-91.467
X80.88Y-94.25
X81.187Y-86.687
X81.263Y-87.483
X82.15Y-93.9
X82.75Y-90.95
X83.3Y-85.05
X83.325Y-79.5
X83.325Y-83.1
X83.375Y-75.0
X83.45Y-87.7
X83.5Y-70.4
X84.75Y-83.65
X84.86Y-95.15
X86.525Y-52.5
X87.5Y-86.4
X87.7Y-87.7
X88.25Y-90.95
X88.3Y-86.2
X89.55Y-64.2
X89.9Y-70.3
X89.94Y-96.47
X90.475Y-86.3
X91.35Y-90.85
X92.1Y-80.25
X92.15Y-75.95
X92.45Y-70.3
X92.5Y-95.2
X93.8Y-85.25
X94.7Y-64.2
X94.9Y-90.45
X96.3Y-69.35
X97.2Y-94.6
X97.3Y-64.25
X97.55Y-66.8
X99.85Y-72.35
X101.1Y-84.66
X101.5Y-76.75
X101.55Y-80.3
X102.05Y-67.1
X102.25Y-99.05
X102.4Y-83.75
X102.55Y-94.5
X103.5Y-64.9
X104.35Y-77.05
X104.35Y-83.6
X104.45Y-68.6
X104.45Y-70.7
X104.45Y-73.0
X108.5Y-94.5
X108.6Y-82.0
X109.1Y-62.25
X110.0Y-53.55
X110.0Y-99.05
X111.0Y-81.0
X111.1Y-75.7
X111.25Y-51.7
X112.45Y-59.35
X114.15Y-65.8
X114.45Y-51.25
X114.75Y-55.75
X115.15Y-71.562
X116.0Y-79.513
X117.1Y-71.5
X117.3Y-61.75
X118.0Y-59.35
X118.0Y-95.5
X118.1Y-54.9
T2
X119.8Y-51.5
X119.8Y-53.5
X119.8Y-55.5
X119.8Y-57.5
X119.8Y-59.5
X119.8Y-61.5
X119.8Y-63.5
X119.8Y-65.5
X119.8Y-67.5
X119.8Y-69.5
X119.8Y-71.5
X119.8Y-73.5
X119.8Y-77.5
X119.8Y-79.5
X119.8Y-81.5
X119.8Y-83.5
X119.8Y-85.5
X119.8Y-87.5
X119.8Y-89.5
X119.8Y-91.5
X119.8Y-93.5
X119.8Y-95.5
X119.8Y-97.5
X119.8Y-99.5
T4
X47.8Y-85.6
X47.8Y-87.6
X47.8Y-89.6
T5
X51.5Y-52.81
X51.5Y-55.35
X59.1Y-68.4
X59.1Y-70.94
X59.1Y-73.48
T6
X53.5Y-81.0
X53.5Y-93.7
T3
G00X48.1Y-58.68
M15
G01X47.3Y-58.68
M16
G05
G00X48.1Y-67.32
M15
G01X47.3Y-67.32
M16
G05
G00X48.2Y-83.45
M15
G01X47.4Y-83.45
M16
G05
G00X48.2Y-91.75
M15
G01X47.4Y-91.75
M16
G05
G00X52.43Y-58.68
M15
G01X51.33Y-58.68
M16
G05
G00X52.43Y-67.32
M15
G01X51.33Y-67.32
M16
G05
M30
