%TF.GenerationSoftware,KiCad,Pcbnew,9.0.6*%
%TF.CreationDate,2025-12-03T09:55:34+10:00*%
%TF.ProjectId,proto1,70726f74-6f31-42e6-9b69-6361645f7063,rev?*%
%TF.SameCoordinates,Original*%
%TF.FileFunction,Legend,Bot*%
%TF.FilePolarity,Positive*%
%FSLAX46Y46*%
G04 Gerber Fmt 4.6, Leading zero omitted, Abs format (unit mm)*
G04 Created by KiCad (PCBNEW 9.0.6) date 2025-12-03 09:55:34*
%MOMM*%
%LPD*%
G01*
G04 APERTURE LIST*
G04 Aperture macros list*
%AMRoundRect*
0 Rectangle with rounded corners*
0 $1 Rounding radius*
0 $2 $3 $4 $5 $6 $7 $8 $9 X,Y pos of 4 corners*
0 Add a 4 corners polygon primitive as box body*
4,1,4,$2,$3,$4,$5,$6,$7,$8,$9,$2,$3,0*
0 Add four circle primitives for the rounded corners*
1,1,$1+$1,$2,$3*
1,1,$1+$1,$4,$5*
1,1,$1+$1,$6,$7*
1,1,$1+$1,$8,$9*
0 Add four rect primitives between the rounded corners*
20,1,$1+$1,$2,$3,$4,$5,0*
20,1,$1+$1,$4,$5,$6,$7,0*
20,1,$1+$1,$6,$7,$8,$9,0*
20,1,$1+$1,$8,$9,$2,$3,0*%
G04 Aperture macros list end*
%ADD10C,0.150000*%
%ADD11C,0.120000*%
%ADD12C,0.990600*%
%ADD13C,1.050000*%
%ADD14RoundRect,0.150000X-0.750000X0.350000X-0.750000X-0.350000X0.750000X-0.350000X0.750000X0.350000X0*%
%ADD15C,0.650000*%
%ADD16O,2.304000X1.254000*%
%ADD17O,2.004000X1.104000*%
%ADD18R,1.700000X1.700000*%
%ADD19C,1.700000*%
%ADD20C,0.300000*%
%ADD21C,3.450000*%
%ADD22R,2.000000X2.000000*%
%ADD23C,2.000000*%
G04 APERTURE END LIST*
D10*
X66771428Y-93814700D02*
X65628571Y-93814700D01*
X66199999Y-94386128D02*
X66199999Y-93243271D01*
X89171428Y-93814700D02*
X88028571Y-93814700D01*
X66771428Y-81114700D02*
X65628571Y-81114700D01*
X50261428Y-81114700D02*
X49118571Y-81114700D01*
X89171428Y-81114700D02*
X88028571Y-81114700D01*
X88599999Y-81686128D02*
X88599999Y-80543271D01*
X50261428Y-93814700D02*
X49118571Y-93814700D01*
X49689999Y-94386128D02*
X49689999Y-93243271D01*
D11*
%TO.C,BT1*%
X50800000Y-74945000D02*
X104000000Y-74945000D01*
X50800000Y-99750000D02*
X50800000Y-74950000D01*
X52230000Y-75920000D02*
X54770000Y-75920000D01*
X52230000Y-87700000D02*
X75090000Y-87700000D01*
X52230000Y-98780000D02*
X52230000Y-75920000D01*
X54770000Y-75920000D02*
X54770000Y-77190000D01*
X54770000Y-77190000D02*
X67470000Y-77190000D01*
X54770000Y-97510000D02*
X54770000Y-98780000D01*
X54770000Y-97510000D02*
X67470000Y-97510000D01*
X54770000Y-98780000D02*
X52230000Y-98780000D01*
X67470000Y-75920000D02*
X87330000Y-75920000D01*
X67470000Y-77190000D02*
X67470000Y-75920000D01*
X67470000Y-78460000D02*
X67470000Y-83540000D01*
X67470000Y-83540000D02*
X86060000Y-83540000D01*
X67470000Y-92430000D02*
X67470000Y-94970000D01*
X67470000Y-94970000D02*
X68740000Y-94970000D01*
X67470000Y-98780000D02*
X67470000Y-97510000D01*
X68740000Y-91160000D02*
X68740000Y-92430000D01*
X68740000Y-92430000D02*
X67470000Y-92430000D01*
X68740000Y-94970000D02*
X68740000Y-96240000D01*
X68740000Y-96240000D02*
X87330000Y-96240000D01*
X75090000Y-87000000D02*
X52230000Y-87000000D01*
X75090000Y-87700000D02*
X75090000Y-87000000D01*
X82250000Y-87000000D02*
X102570000Y-87000000D01*
X82250000Y-87700000D02*
X82250000Y-87000000D01*
X86060000Y-78460000D02*
X67470000Y-78460000D01*
X86060000Y-79730000D02*
X86060000Y-78460000D01*
X86060000Y-82270000D02*
X87330000Y-82270000D01*
X86060000Y-83540000D02*
X86060000Y-82270000D01*
X87330000Y-75920000D02*
X87330000Y-77190000D01*
X87330000Y-79730000D02*
X86060000Y-79730000D01*
X87330000Y-82270000D02*
X87330000Y-79730000D01*
X87330000Y-91160000D02*
X68740000Y-91160000D01*
X87330000Y-96240000D02*
X87330000Y-91160000D01*
X87330000Y-97510000D02*
X87330000Y-98780000D01*
X87330000Y-98780000D02*
X67470000Y-98780000D01*
X100030000Y-75920000D02*
X100030000Y-77190000D01*
X100030000Y-77190000D02*
X87330000Y-77190000D01*
X100030000Y-97510000D02*
X87330000Y-97510000D01*
X100030000Y-98780000D02*
X100030000Y-97510000D01*
X102570000Y-75920000D02*
X100030000Y-75920000D01*
X102570000Y-87700000D02*
X82250000Y-87700000D01*
X102570000Y-98780000D02*
X100030000Y-98780000D01*
X102570000Y-98780000D02*
X102570000Y-75920000D01*
X104000000Y-74950000D02*
X104000000Y-99750000D01*
X104000000Y-99755000D02*
X50800000Y-99755000D01*
%TD*%
%LPC*%
D12*
%TO.C,J11*%
X62314053Y-75518547D03*
X63330053Y-80598547D03*
X61298053Y-80598547D03*
%TD*%
D13*
%TO.C,SW2*%
X48000000Y-92000000D03*
X48000000Y-94000000D03*
X48000000Y-96000000D03*
D14*
X48000000Y-89850000D03*
X48000000Y-98150000D03*
%TD*%
D15*
%TO.C,J1*%
X51430000Y-60110000D03*
X51430000Y-65890000D03*
D16*
X51930000Y-58680000D03*
X51930000Y-67320000D03*
D17*
X47750000Y-58680000D03*
X47750000Y-67320000D03*
%TD*%
D18*
%TO.C,J13*%
X57000000Y-52250000D03*
D19*
X57000000Y-54790000D03*
%TD*%
D20*
%TO.C,MK1*%
X93000000Y-72000000D03*
%TD*%
D21*
%TO.C,BT1*%
X92110000Y-85000000D03*
D22*
X53500000Y-93700000D03*
D23*
X53500000Y-81000000D03*
%TD*%
%LPD*%
M02*
