%TF.GenerationSoftware,KiCad,Pcbnew,9.0.6*%
%TF.CreationDate,2025-12-03T09:55:34+10:00*%
%TF.ProjectId,proto1,70726f74-6f31-42e6-9b69-6361645f7063,rev?*%
%TF.SameCoordinates,Original*%
%TF.FileFunction,Soldermask,Top*%
%TF.FilePolarity,Negative*%
%FSLAX46Y46*%
G04 Gerber Fmt 4.6, Leading zero omitted, Abs format (unit mm)*
G04 Created by KiCad (PCBNEW 9.0.6) date 2025-12-03 09:55:34*
%MOMM*%
%LPD*%
G01*
G04 APERTURE LIST*
G04 Aperture macros list*
%AMRoundRect*
0 Rectangle with rounded corners*
0 $1 Rounding radius*
0 $2 $3 $4 $5 $6 $7 $8 $9 X,Y pos of 4 corners*
0 Add a 4 corners polygon primitive as box body*
4,1,4,$2,$3,$4,$5,$6,$7,$8,$9,$2,$3,0*
0 Add four circle primitives for the rounded corners*
1,1,$1+$1,$2,$3*
1,1,$1+$1,$4,$5*
1,1,$1+$1,$6,$7*
1,1,$1+$1,$8,$9*
0 Add four rect primitives between the rounded corners*
20,1,$1+$1,$2,$3,$4,$5,0*
20,1,$1+$1,$4,$5,$6,$7,0*
20,1,$1+$1,$6,$7,$8,$9,0*
20,1,$1+$1,$8,$9,$2,$3,0*%
%AMFreePoly0*
4,1,64,-0.343572,0.598088,-0.230377,0.551201,-0.128504,0.483132,-0.041868,0.396496,0.026201,0.294623,0.073088,0.181428,0.096990,0.061261,0.096990,0.022138,0.098079,0.019509,0.098079,-0.019509,0.096990,-0.022138,0.096990,-0.061261,0.073088,-0.181428,0.026201,-0.294623,-0.041868,-0.396496,-0.128504,-0.483132,-0.230377,-0.551201,-0.343572,-0.598088,-0.463739,-0.621990,-0.586261,-0.621990,
-0.706428,-0.598088,-0.819623,-0.551201,-0.921496,-0.483132,-1.008132,-0.396496,-1.076201,-0.294623,-1.123088,-0.181428,-1.146990,-0.061261,-1.146990,0.055952,-0.950000,0.055952,-0.950000,-0.055952,-0.921037,-0.164044,-0.865084,-0.260956,-0.785956,-0.340084,-0.689044,-0.396037,-0.580952,-0.425000,-0.469048,-0.425000,-0.360956,-0.396037,-0.264044,-0.340084,-0.184916,-0.260956,-0.128963,-0.164044,
-0.100000,-0.055952,-0.100000,0.055952,-0.128963,0.164044,-0.184916,0.260956,-0.264044,0.340084,-0.360956,0.396037,-0.469048,0.425000,-0.580952,0.425000,-0.689044,0.396037,-0.785956,0.340084,-0.865084,0.260956,-0.921037,0.164044,-0.950000,0.055952,-1.146990,0.055952,-1.146990,0.061261,-1.123088,0.181428,-1.076201,0.294623,-1.008132,0.396496,-0.921496,0.483132,-0.819623,0.551201,
-0.706428,0.598088,-0.586261,0.621990,-0.463739,0.621990,-0.343572,0.598088,-0.343572,0.598088,$1*%
G04 Aperture macros list end*
%ADD10C,1.500000*%
%ADD11RoundRect,0.200000X-0.275000X0.200000X-0.275000X-0.200000X0.275000X-0.200000X0.275000X0.200000X0*%
%ADD12RoundRect,0.200000X0.275000X-0.200000X0.275000X0.200000X-0.275000X0.200000X-0.275000X-0.200000X0*%
%ADD13RoundRect,0.225000X0.250000X-0.225000X0.250000X0.225000X-0.250000X0.225000X-0.250000X-0.225000X0*%
%ADD14RoundRect,0.225000X-0.375000X0.225000X-0.375000X-0.225000X0.375000X-0.225000X0.375000X0.225000X0*%
%ADD15RoundRect,0.200000X0.200000X0.275000X-0.200000X0.275000X-0.200000X-0.275000X0.200000X-0.275000X0*%
%ADD16RoundRect,0.200000X-0.200000X-0.275000X0.200000X-0.275000X0.200000X0.275000X-0.200000X0.275000X0*%
%ADD17RoundRect,0.225000X-0.250000X0.225000X-0.250000X-0.225000X0.250000X-0.225000X0.250000X0.225000X0*%
%ADD18R,1.000000X0.700000*%
%ADD19R,0.650000X1.800000*%
%ADD20RoundRect,0.225000X-0.225000X-0.250000X0.225000X-0.250000X0.225000X0.250000X-0.225000X0.250000X0*%
%ADD21C,0.990600*%
%ADD22C,0.787400*%
%ADD23C,1.050000*%
%ADD24RoundRect,0.150000X-0.750000X0.350000X-0.750000X-0.350000X0.750000X-0.350000X0.750000X0.350000X0*%
%ADD25RoundRect,0.225000X0.525000X0.525000X-0.525000X0.525000X-0.525000X-0.525000X0.525000X-0.525000X0*%
%ADD26RoundRect,0.250000X0.700000X1.000000X-0.700000X1.000000X-0.700000X-1.000000X0.700000X-1.000000X0*%
%ADD27R,1.800000X0.650000*%
%ADD28RoundRect,0.155000X-0.212500X-0.155000X0.212500X-0.155000X0.212500X0.155000X-0.212500X0.155000X0*%
%ADD29RoundRect,0.075000X0.075000X-0.662500X0.075000X0.662500X-0.075000X0.662500X-0.075000X-0.662500X0*%
%ADD30RoundRect,0.075000X0.662500X-0.075000X0.662500X0.075000X-0.662500X0.075000X-0.662500X-0.075000X0*%
%ADD31RoundRect,0.150000X-0.150000X0.512500X-0.150000X-0.512500X0.150000X-0.512500X0.150000X0.512500X0*%
%ADD32RoundRect,0.155000X0.212500X0.155000X-0.212500X0.155000X-0.212500X-0.155000X0.212500X-0.155000X0*%
%ADD33C,0.650000*%
%ADD34RoundRect,0.102000X-0.570000X0.300000X-0.570000X-0.300000X0.570000X-0.300000X0.570000X0.300000X0*%
%ADD35RoundRect,0.102000X-0.570000X0.150000X-0.570000X-0.150000X0.570000X-0.150000X0.570000X0.150000X0*%
%ADD36O,2.304000X1.254000*%
%ADD37O,2.004000X1.104000*%
%ADD38R,1.700000X1.700000*%
%ADD39C,1.700000*%
%ADD40RoundRect,0.218750X0.256250X-0.218750X0.256250X0.218750X-0.256250X0.218750X-0.256250X-0.218750X0*%
%ADD41RoundRect,0.180000X0.420000X-0.520000X0.420000X0.520000X-0.420000X0.520000X-0.420000X-0.520000X0*%
%ADD42RoundRect,0.225000X0.225000X0.250000X-0.225000X0.250000X-0.225000X-0.250000X0.225000X-0.250000X0*%
%ADD43R,1.000000X1.900000*%
%ADD44C,0.300000*%
%ADD45RoundRect,0.052500X0.222500X-0.122500X0.222500X0.122500X-0.222500X0.122500X-0.222500X-0.122500X0*%
%ADD46FreePoly0,90.000000*%
%ADD47RoundRect,0.150000X0.150000X-0.587500X0.150000X0.587500X-0.150000X0.587500X-0.150000X-0.587500X0*%
%ADD48C,3.450000*%
%ADD49R,2.000000X2.000000*%
%ADD50C,2.000000*%
G04 APERTURE END LIST*
D10*
%TO.C,TP14*%
X101200000Y-65100000D03*
%TD*%
D11*
%TO.C,R16*%
X83741243Y-95198957D03*
X83741243Y-96848957D03*
%TD*%
D12*
%TO.C,R19*%
X107928791Y-71096073D03*
X107928791Y-69446073D03*
%TD*%
D13*
%TO.C,C4*%
X93719271Y-68870445D03*
X93719271Y-67320445D03*
%TD*%
D14*
%TO.C,D1*%
X53500000Y-88350000D03*
X53500000Y-91650000D03*
%TD*%
D15*
%TO.C,R4*%
X56150000Y-64278582D03*
X54500000Y-64278582D03*
%TD*%
D16*
%TO.C,R24*%
X95675982Y-75012103D03*
X97325982Y-75012103D03*
%TD*%
D12*
%TO.C,R15*%
X51500000Y-97825000D03*
X51500000Y-96175000D03*
%TD*%
D13*
%TO.C,C8*%
X106424470Y-71046256D03*
X106424470Y-69496256D03*
%TD*%
D17*
%TO.C,C1*%
X58568597Y-84333345D03*
X58568597Y-85883345D03*
%TD*%
D18*
%TO.C,U4*%
X103200000Y-78427000D03*
X103200000Y-77475000D03*
X103200000Y-76525000D03*
X103200000Y-75573000D03*
X98800000Y-75573000D03*
X98800000Y-76525000D03*
X98800000Y-77475000D03*
X98800000Y-78427000D03*
%TD*%
D19*
%TO.C,J12*%
X72843205Y-96120045D03*
X74113205Y-93420045D03*
X75383205Y-96120045D03*
X76653205Y-93420045D03*
X77923205Y-96120045D03*
X79193205Y-93420045D03*
X80463205Y-96120045D03*
X81733205Y-93420045D03*
%TD*%
D20*
%TO.C,C9*%
X101620857Y-81648590D03*
X103170857Y-81648590D03*
%TD*%
D21*
%TO.C,J11*%
X62314053Y-75518547D03*
X63330053Y-80598547D03*
X61298053Y-80598547D03*
D22*
X61679053Y-76788547D03*
X62949053Y-76788547D03*
X61679053Y-78058547D03*
X62949053Y-78058547D03*
X61679053Y-79328547D03*
X62949053Y-79328547D03*
%TD*%
D23*
%TO.C,SW2*%
X48000000Y-92000000D03*
X48000000Y-94000000D03*
X48000000Y-96000000D03*
D24*
X48000000Y-89850000D03*
X48000000Y-98150000D03*
%TD*%
D13*
%TO.C,C6*%
X92219271Y-68870445D03*
X92219271Y-67320445D03*
%TD*%
D17*
%TO.C,C2*%
X55515468Y-88355167D03*
X55515468Y-89905167D03*
%TD*%
D25*
%TO.C,SW4*%
X66000000Y-56000000D03*
X60000000Y-56000000D03*
X66000000Y-53000000D03*
X60000000Y-53000000D03*
%TD*%
D15*
%TO.C,R11*%
X98800000Y-65142031D03*
X97150000Y-65142031D03*
%TD*%
D26*
%TO.C,Y2*%
X77163205Y-88120045D03*
X72763205Y-88120045D03*
%TD*%
D27*
%TO.C,J18*%
X65724843Y-80966087D03*
X68424843Y-82236087D03*
X65724843Y-83506087D03*
X68424843Y-84776087D03*
X65724843Y-86046087D03*
X68424843Y-87316087D03*
X65724843Y-88586087D03*
X68424843Y-89856087D03*
%TD*%
D28*
%TO.C,C3*%
X76047961Y-84587603D03*
X77182961Y-84587603D03*
%TD*%
%TO.C,C16*%
X76031965Y-90906590D03*
X77166965Y-90906590D03*
%TD*%
D20*
%TO.C,C5*%
X97198064Y-66649695D03*
X98748064Y-66649695D03*
%TD*%
D11*
%TO.C,R9*%
X57164571Y-93195593D03*
X57164571Y-94845593D03*
%TD*%
D15*
%TO.C,R6*%
X97798714Y-91207279D03*
X96148714Y-91207279D03*
%TD*%
D16*
%TO.C,R3*%
X54500000Y-65778582D03*
X56150000Y-65778582D03*
%TD*%
D25*
%TO.C,SW1*%
X93000000Y-96000000D03*
X87000000Y-96000000D03*
X93000000Y-93000000D03*
X87000000Y-93000000D03*
%TD*%
D19*
%TO.C,J16*%
X81562435Y-67491799D03*
X80292435Y-70191799D03*
X79022435Y-67491799D03*
X77752435Y-70191799D03*
X76482435Y-67491799D03*
X75212435Y-70191799D03*
X73942435Y-67491799D03*
X72672435Y-70191799D03*
%TD*%
D25*
%TO.C,SW3*%
X102500000Y-96000000D03*
X96500000Y-96000000D03*
X102500000Y-93000000D03*
X96500000Y-93000000D03*
%TD*%
D20*
%TO.C,C10*%
X95728402Y-73511538D03*
X97278402Y-73511538D03*
%TD*%
D25*
%TO.C,SW5*%
X75500000Y-56000000D03*
X69500000Y-56000000D03*
X75500000Y-53000000D03*
X69500000Y-53000000D03*
%TD*%
D27*
%TO.C,J15*%
X88477426Y-78513268D03*
X85777426Y-77243268D03*
X88477426Y-75973268D03*
X85777426Y-74703268D03*
X88477426Y-73433268D03*
X85777426Y-72163268D03*
X88477426Y-70893268D03*
X85777426Y-69623268D03*
%TD*%
%TO.C,J14*%
X88471121Y-90102635D03*
X85771121Y-88832635D03*
X88471121Y-87562635D03*
X85771121Y-86292635D03*
X88471121Y-85022635D03*
X85771121Y-83752635D03*
X88471121Y-82482635D03*
X85771121Y-81212635D03*
%TD*%
D11*
%TO.C,TH1*%
X106000000Y-52350000D03*
X106000000Y-54000000D03*
%TD*%
D15*
%TO.C,R14*%
X76860906Y-65197578D03*
X75210906Y-65197578D03*
%TD*%
D16*
%TO.C,R23*%
X95679612Y-76524300D03*
X97329612Y-76524300D03*
%TD*%
D29*
%TO.C,U1*%
X74203137Y-83133543D03*
X74703137Y-83133543D03*
X75203137Y-83133543D03*
X75703137Y-83133543D03*
X76203137Y-83133543D03*
X76703137Y-83133543D03*
X77203137Y-83133543D03*
X77703137Y-83133543D03*
X78203137Y-83133543D03*
X78703137Y-83133543D03*
X79203137Y-83133543D03*
X79703137Y-83133543D03*
D30*
X81115637Y-81721043D03*
X81115637Y-81221043D03*
X81115637Y-80721043D03*
X81115637Y-80221043D03*
X81115637Y-79721043D03*
X81115637Y-79221043D03*
X81115637Y-78721043D03*
X81115637Y-78221043D03*
X81115637Y-77721043D03*
X81115637Y-77221043D03*
X81115637Y-76721043D03*
X81115637Y-76221043D03*
D29*
X79703137Y-74808543D03*
X79203137Y-74808543D03*
X78703137Y-74808543D03*
X78203137Y-74808543D03*
X77703137Y-74808543D03*
X77203137Y-74808543D03*
X76703137Y-74808543D03*
X76203137Y-74808543D03*
X75703137Y-74808543D03*
X75203137Y-74808543D03*
X74703137Y-74808543D03*
X74203137Y-74808543D03*
D30*
X72790637Y-76221043D03*
X72790637Y-76721043D03*
X72790637Y-77221043D03*
X72790637Y-77721043D03*
X72790637Y-78221043D03*
X72790637Y-78721043D03*
X72790637Y-79221043D03*
X72790637Y-79721043D03*
X72790637Y-80221043D03*
X72790637Y-80721043D03*
X72790637Y-81221043D03*
X72790637Y-81721043D03*
%TD*%
D31*
%TO.C,U3*%
X55520277Y-84333243D03*
X54570277Y-84333243D03*
X53620277Y-84333243D03*
X53620277Y-86608243D03*
X55520277Y-86608243D03*
%TD*%
D27*
%TO.C,J17*%
X65720811Y-69384294D03*
X68420811Y-70654294D03*
X65720811Y-71924294D03*
X68420811Y-73194294D03*
X65720811Y-74464294D03*
X68420811Y-75734294D03*
X65720811Y-77004294D03*
X68420811Y-78274294D03*
%TD*%
D32*
%TO.C,C15*%
X73900731Y-90906590D03*
X72765731Y-90906590D03*
%TD*%
%TO.C,C14*%
X80801719Y-86046453D03*
X79666719Y-86046453D03*
%TD*%
D10*
%TO.C,TP15*%
X76058842Y-63010088D03*
%TD*%
D33*
%TO.C,J1*%
X51430000Y-60110000D03*
X51430000Y-65890000D03*
D34*
X52500000Y-59800000D03*
X52500000Y-60600000D03*
D35*
X52500000Y-61750000D03*
X52500000Y-62750000D03*
X52500000Y-63250000D03*
X52500000Y-64250000D03*
D34*
X52500000Y-66200000D03*
X52500000Y-65400000D03*
D35*
X52500000Y-64750000D03*
X52500000Y-63750000D03*
X52500000Y-62250000D03*
X52500000Y-61250000D03*
D36*
X51930000Y-58680000D03*
X51930000Y-67320000D03*
D37*
X47750000Y-58680000D03*
X47750000Y-67320000D03*
%TD*%
D38*
%TO.C,J13*%
X57000000Y-52250000D03*
D39*
X57000000Y-54790000D03*
%TD*%
D16*
%TO.C,R22*%
X101571680Y-80123912D03*
X103221680Y-80123912D03*
%TD*%
D40*
%TO.C,D2*%
X53045920Y-97779004D03*
X53045920Y-96204004D03*
%TD*%
D16*
%TO.C,R21*%
X106350000Y-75500000D03*
X108000000Y-75500000D03*
%TD*%
D11*
%TO.C,R20*%
X107928791Y-72442213D03*
X107928791Y-74092213D03*
%TD*%
D12*
%TO.C,R8*%
X57166289Y-98093815D03*
X57166289Y-96443815D03*
%TD*%
D10*
%TO.C,VUSB*%
X55278265Y-59203848D03*
%TD*%
D41*
%TO.C,XTAL1*%
X81500000Y-89500000D03*
X79800000Y-89500000D03*
X79800000Y-87300000D03*
X81500000Y-87300000D03*
%TD*%
D42*
%TO.C,C11*%
X107142842Y-81064385D03*
X105592842Y-81064385D03*
%TD*%
D43*
%TO.C,J3*%
X59880000Y-97300000D03*
X62420000Y-94000000D03*
X64960000Y-97300000D03*
X67500000Y-94000000D03*
%TD*%
D42*
%TO.C,C7*%
X98753457Y-63628543D03*
X97203457Y-63628543D03*
%TD*%
D44*
%TO.C,MK1*%
X93000000Y-72000000D03*
D45*
X93525000Y-70325000D03*
X93525000Y-70975000D03*
D46*
X93000000Y-71475000D03*
D45*
X92475000Y-70975000D03*
X92475000Y-70325000D03*
%TD*%
D16*
%TO.C,R2*%
X54500000Y-61278582D03*
X56150000Y-61278582D03*
%TD*%
D47*
%TO.C,D3*%
X105397159Y-79251911D03*
X107297159Y-79251911D03*
X106347159Y-77376911D03*
%TD*%
D13*
%TO.C,C12*%
X83741243Y-93792772D03*
X83741243Y-92242772D03*
%TD*%
D16*
%TO.C,R13*%
X97150890Y-68134165D03*
X98800890Y-68134165D03*
%TD*%
D11*
%TO.C,R18*%
X104931506Y-69440166D03*
X104931506Y-71090166D03*
%TD*%
D12*
%TO.C,R12*%
X95707510Y-68227908D03*
X95707510Y-66577908D03*
%TD*%
D28*
%TO.C,C13*%
X80504777Y-90760294D03*
X81639777Y-90760294D03*
%TD*%
D16*
%TO.C,R5*%
X54500000Y-62778582D03*
X56150000Y-62778582D03*
%TD*%
D11*
%TO.C,R10*%
X104500000Y-52350000D03*
X104500000Y-54000000D03*
%TD*%
%TO.C,R1*%
X57053920Y-84333345D03*
X57053920Y-85983345D03*
%TD*%
D48*
%TO.C,BT1*%
X92110000Y-85000000D03*
D49*
X53500000Y-93700000D03*
D50*
X53500000Y-81000000D03*
%TD*%
M02*
