M48
; DRILL file {KiCad 9.0.6} date 2025-12-03T09:56:24+1000
; FORMAT={-:-/ absolute / metric / decimal}
; #@! TF.CreationDate,2025-12-03T09:56:24+10:00
; #@! TF.GenerationSoftware,Kicad,Pcbnew,9.0.6
; #@! TF.FileFunction,Plated,1,2,PTH
FMAT,2
METRIC
; #@! TA.AperFunction,Plated,PTH,ViaDrill
T1C0.300
; #@! TA.AperFunction,Plated,PTH,ComponentDrill
T2C0.600
; #@! TA.AperFunction,Plated,PTH,ComponentDrill
T3C0.650
; #@! TA.AperFunction,Plated,PTH,ComponentDrill
T4C1.000
; #@! TA.AperFunction,Plated,PTH,ComponentDrill
T5C1.020
%
G90
G05
T1
X47.5Y-53.0
X47.5Y-63.0
X47.5Y-69.5
X48.0Y-85.0
X51.855Y-73.645
X52.0Y-55.0
X53.5Y-79.0
X55.0Y-96.0
X55.5Y-77.0
X58.6Y-81.0
X59.4Y-91.6
X60.0Y-95.0
X62.2Y-73.5
X62.8Y-98.4
X64.279Y-79.324
X65.7Y-90.2
X67.8Y-54.6
X70.5Y-98.3
X70.6Y-75.6
X72.2Y-60.6
X73.6Y-85.0
X74.2Y-98.4
X74.493Y-76.03
X74.6Y-78.2
X75.0Y-91.7
X75.6Y-81.2
X76.0Y-85.5
X76.861Y-64.0
X77.5Y-85.75
X77.923Y-94.69
X78.5Y-81.0
X78.6Y-77.2
X78.8Y-91.2
X80.5Y-98.5
X81.8Y-73.0
X83.4Y-90.3
X86.4Y-67.4
X87.7Y-86.3
X90.0Y-94.5
X90.5Y-88.5
X91.995Y-71.583
X92.977Y-66.613
X94.7Y-94.5
X95.0Y-82.5
X95.8Y-80.6
X97.8Y-80.6
X98.6Y-73.6
X99.5Y-94.5
X99.8Y-63.4
X99.8Y-65.1
X100.0Y-80.6
X100.4Y-78.0
X101.6Y-72.75
X101.6Y-75.6
X102.675Y-68.425
X103.3Y-52.3
X103.8Y-54.7
X104.4Y-79.2
X104.4Y-81.0
X105.6Y-73.6
X106.0Y-55.4
X106.4Y-68.4
X107.2Y-54.0
X109.9Y-52.62
X109.9Y-54.44
X109.9Y-56.26
X109.9Y-58.08
X109.9Y-59.9
X109.9Y-61.72
X109.9Y-63.54
X109.9Y-65.36
X109.9Y-67.18
X109.9Y-69.0
X109.9Y-70.82
X109.9Y-72.64
X109.9Y-74.46
X109.9Y-76.64
X109.9Y-78.46
X109.9Y-80.28
X109.9Y-82.1
X109.9Y-83.92
X109.9Y-85.74
X109.9Y-87.56
X109.9Y-89.38
X109.9Y-91.2
X109.9Y-93.02
X109.9Y-94.84
X109.9Y-96.66
X109.9Y-98.48
T3
X48.0Y-92.0
X48.0Y-94.0
X48.0Y-96.0
T4
X57.0Y-52.25
X57.0Y-54.79
T5
X53.5Y-81.0
X53.5Y-93.7
T2
G00X48.15Y-58.68
M15
G01X47.35Y-58.68
M16
G05
G00X48.15Y-67.32
M15
G01X47.35Y-67.32
M16
G05
G00X48.4Y-89.85
M15
G01X47.6Y-89.85
M16
G05
G00X48.4Y-98.15
M15
G01X47.6Y-98.15
M16
G05
G00X52.48Y-58.68
M15
G01X51.38Y-58.68
M16
G05
G00X52.48Y-67.32
M15
G01X51.38Y-67.32
M16
G05
M30
