%TF.GenerationSoftware,KiCad,Pcbnew,9.0.7*%
%TF.CreationDate,2026-01-19T21:10:34+10:00*%
%TF.ProjectId,proto1,70726f74-6f31-42e6-9b69-6361645f7063,rev?*%
%TF.SameCoordinates,Original*%
%TF.FileFunction,Soldermask,Bot*%
%TF.FilePolarity,Negative*%
%FSLAX46Y46*%
G04 Gerber Fmt 4.6, Leading zero omitted, Abs format (unit mm)*
G04 Created by KiCad (PCBNEW 9.0.7) date 2026-01-19 21:10:34*
%MOMM*%
%LPD*%
G01*
G04 APERTURE LIST*
G04 Aperture macros list*
%AMRoundRect*
0 Rectangle with rounded corners*
0 $1 Rounding radius*
0 $2 $3 $4 $5 $6 $7 $8 $9 X,Y pos of 4 corners*
0 Add a 4 corners polygon primitive as box body*
4,1,4,$2,$3,$4,$5,$6,$7,$8,$9,$2,$3,0*
0 Add four circle primitives for the rounded corners*
1,1,$1+$1,$2,$3*
1,1,$1+$1,$4,$5*
1,1,$1+$1,$6,$7*
1,1,$1+$1,$8,$9*
0 Add four rect primitives between the rounded corners*
20,1,$1+$1,$2,$3,$4,$5,0*
20,1,$1+$1,$4,$5,$6,$7,0*
20,1,$1+$1,$6,$7,$8,$9,0*
20,1,$1+$1,$8,$9,$2,$3,0*%
G04 Aperture macros list end*
%ADD10C,0.990600*%
%ADD11C,1.050000*%
%ADD12RoundRect,0.150000X-0.750000X0.350000X-0.750000X-0.350000X0.750000X-0.350000X0.750000X0.350000X0*%
%ADD13C,0.600000*%
%ADD14R,1.700000X1.700000*%
%ADD15C,1.700000*%
%ADD16C,0.650000*%
%ADD17O,2.304000X1.254000*%
%ADD18O,2.004000X1.104000*%
%ADD19R,2.000000X2.000000*%
%ADD20C,2.000000*%
G04 APERTURE END LIST*
D10*
%TO.C,J11*%
X55315000Y-68260000D03*
X56331000Y-73340000D03*
X54299000Y-73340000D03*
%TD*%
D11*
%TO.C,SW2*%
X47800000Y-85600000D03*
X47800000Y-87600000D03*
X47800000Y-89600000D03*
D12*
X47800000Y-83450000D03*
X47800000Y-91750000D03*
%TD*%
D13*
%TO.C,AE1*%
X119800000Y-51500000D03*
X119800000Y-53500000D03*
X119800000Y-55500000D03*
X119800000Y-57500000D03*
X119800000Y-59500000D03*
X119800000Y-61500000D03*
X119800000Y-63500000D03*
X119800000Y-65500000D03*
X119800000Y-67500000D03*
X119800000Y-69500000D03*
X119800000Y-71500000D03*
X119800000Y-73500000D03*
X119800000Y-77500000D03*
X119800000Y-79500000D03*
X119800000Y-81500000D03*
X119800000Y-83500000D03*
X119800000Y-85500000D03*
X119800000Y-87500000D03*
X119800000Y-89500000D03*
X119800000Y-91500000D03*
X119800000Y-93500000D03*
X119800000Y-95500000D03*
X119800000Y-97500000D03*
X119800000Y-99500000D03*
%TD*%
D14*
%TO.C,J2*%
X59100000Y-68400000D03*
D15*
X59100000Y-70940000D03*
X59100000Y-73480000D03*
%TD*%
D16*
%TO.C,J1*%
X51380000Y-60110000D03*
X51380000Y-65890000D03*
D17*
X51880000Y-58680000D03*
X51880000Y-67320000D03*
D18*
X47700000Y-58680000D03*
X47700000Y-67320000D03*
%TD*%
D14*
%TO.C,J13*%
X51500000Y-52810000D03*
D15*
X51500000Y-55350000D03*
%TD*%
D13*
%TO.C,MK1*%
X99200000Y-66100000D03*
%TD*%
D19*
%TO.C,BT1*%
X53500000Y-93700000D03*
D20*
X53500000Y-81000000D03*
%TD*%
M02*
