%TF.GenerationSoftware,KiCad,Pcbnew,9.0.6*%
%TF.CreationDate,2025-12-03T09:55:34+10:00*%
%TF.ProjectId,proto1,70726f74-6f31-42e6-9b69-6361645f7063,rev?*%
%TF.SameCoordinates,Original*%
%TF.FileFunction,Legend,Top*%
%TF.FilePolarity,Positive*%
%FSLAX46Y46*%
G04 Gerber Fmt 4.6, Leading zero omitted, Abs format (unit mm)*
G04 Created by KiCad (PCBNEW 9.0.6) date 2025-12-03 09:55:34*
%MOMM*%
%LPD*%
G01*
G04 APERTURE LIST*
G04 Aperture macros list*
%AMRoundRect*
0 Rectangle with rounded corners*
0 $1 Rounding radius*
0 $2 $3 $4 $5 $6 $7 $8 $9 X,Y pos of 4 corners*
0 Add a 4 corners polygon primitive as box body*
4,1,4,$2,$3,$4,$5,$6,$7,$8,$9,$2,$3,0*
0 Add four circle primitives for the rounded corners*
1,1,$1+$1,$2,$3*
1,1,$1+$1,$4,$5*
1,1,$1+$1,$6,$7*
1,1,$1+$1,$8,$9*
0 Add four rect primitives between the rounded corners*
20,1,$1+$1,$2,$3,$4,$5,0*
20,1,$1+$1,$4,$5,$6,$7,0*
20,1,$1+$1,$6,$7,$8,$9,0*
20,1,$1+$1,$8,$9,$2,$3,0*%
%AMFreePoly0*
4,1,64,-0.343572,0.598088,-0.230377,0.551201,-0.128504,0.483132,-0.041868,0.396496,0.026201,0.294623,0.073088,0.181428,0.096990,0.061261,0.096990,0.022138,0.098079,0.019509,0.098079,-0.019509,0.096990,-0.022138,0.096990,-0.061261,0.073088,-0.181428,0.026201,-0.294623,-0.041868,-0.396496,-0.128504,-0.483132,-0.230377,-0.551201,-0.343572,-0.598088,-0.463739,-0.621990,-0.586261,-0.621990,
-0.706428,-0.598088,-0.819623,-0.551201,-0.921496,-0.483132,-1.008132,-0.396496,-1.076201,-0.294623,-1.123088,-0.181428,-1.146990,-0.061261,-1.146990,0.055952,-0.950000,0.055952,-0.950000,-0.055952,-0.921037,-0.164044,-0.865084,-0.260956,-0.785956,-0.340084,-0.689044,-0.396037,-0.580952,-0.425000,-0.469048,-0.425000,-0.360956,-0.396037,-0.264044,-0.340084,-0.184916,-0.260956,-0.128963,-0.164044,
-0.100000,-0.055952,-0.100000,0.055952,-0.128963,0.164044,-0.184916,0.260956,-0.264044,0.340084,-0.360956,0.396037,-0.469048,0.425000,-0.580952,0.425000,-0.689044,0.396037,-0.785956,0.340084,-0.865084,0.260956,-0.921037,0.164044,-0.950000,0.055952,-1.146990,0.055952,-1.146990,0.061261,-1.123088,0.181428,-1.076201,0.294623,-1.008132,0.396496,-0.921496,0.483132,-0.819623,0.551201,
-0.706428,0.598088,-0.586261,0.621990,-0.463739,0.621990,-0.343572,0.598088,-0.343572,0.598088,$1*%
G04 Aperture macros list end*
%ADD10C,0.100000*%
%ADD11C,0.150000*%
%ADD12C,0.120000*%
%ADD13C,0.127000*%
%ADD14C,0.250000*%
%ADD15C,1.500000*%
%ADD16RoundRect,0.200000X-0.275000X0.200000X-0.275000X-0.200000X0.275000X-0.200000X0.275000X0.200000X0*%
%ADD17RoundRect,0.200000X0.275000X-0.200000X0.275000X0.200000X-0.275000X0.200000X-0.275000X-0.200000X0*%
%ADD18RoundRect,0.225000X0.250000X-0.225000X0.250000X0.225000X-0.250000X0.225000X-0.250000X-0.225000X0*%
%ADD19RoundRect,0.225000X-0.375000X0.225000X-0.375000X-0.225000X0.375000X-0.225000X0.375000X0.225000X0*%
%ADD20RoundRect,0.200000X0.200000X0.275000X-0.200000X0.275000X-0.200000X-0.275000X0.200000X-0.275000X0*%
%ADD21RoundRect,0.200000X-0.200000X-0.275000X0.200000X-0.275000X0.200000X0.275000X-0.200000X0.275000X0*%
%ADD22RoundRect,0.225000X-0.250000X0.225000X-0.250000X-0.225000X0.250000X-0.225000X0.250000X0.225000X0*%
%ADD23R,1.000000X0.700000*%
%ADD24R,0.650000X1.800000*%
%ADD25RoundRect,0.225000X-0.225000X-0.250000X0.225000X-0.250000X0.225000X0.250000X-0.225000X0.250000X0*%
%ADD26C,0.990600*%
%ADD27C,0.787400*%
%ADD28C,1.050000*%
%ADD29RoundRect,0.150000X-0.750000X0.350000X-0.750000X-0.350000X0.750000X-0.350000X0.750000X0.350000X0*%
%ADD30RoundRect,0.225000X0.525000X0.525000X-0.525000X0.525000X-0.525000X-0.525000X0.525000X-0.525000X0*%
%ADD31RoundRect,0.250000X0.700000X1.000000X-0.700000X1.000000X-0.700000X-1.000000X0.700000X-1.000000X0*%
%ADD32R,1.800000X0.650000*%
%ADD33RoundRect,0.155000X-0.212500X-0.155000X0.212500X-0.155000X0.212500X0.155000X-0.212500X0.155000X0*%
%ADD34RoundRect,0.075000X0.075000X-0.662500X0.075000X0.662500X-0.075000X0.662500X-0.075000X-0.662500X0*%
%ADD35RoundRect,0.075000X0.662500X-0.075000X0.662500X0.075000X-0.662500X0.075000X-0.662500X-0.075000X0*%
%ADD36RoundRect,0.150000X-0.150000X0.512500X-0.150000X-0.512500X0.150000X-0.512500X0.150000X0.512500X0*%
%ADD37RoundRect,0.155000X0.212500X0.155000X-0.212500X0.155000X-0.212500X-0.155000X0.212500X-0.155000X0*%
%ADD38C,0.650000*%
%ADD39RoundRect,0.102000X-0.570000X0.300000X-0.570000X-0.300000X0.570000X-0.300000X0.570000X0.300000X0*%
%ADD40RoundRect,0.102000X-0.570000X0.150000X-0.570000X-0.150000X0.570000X-0.150000X0.570000X0.150000X0*%
%ADD41O,2.304000X1.254000*%
%ADD42O,2.004000X1.104000*%
%ADD43R,1.700000X1.700000*%
%ADD44C,1.700000*%
%ADD45RoundRect,0.218750X0.256250X-0.218750X0.256250X0.218750X-0.256250X0.218750X-0.256250X-0.218750X0*%
%ADD46RoundRect,0.180000X0.420000X-0.520000X0.420000X0.520000X-0.420000X0.520000X-0.420000X-0.520000X0*%
%ADD47RoundRect,0.225000X0.225000X0.250000X-0.225000X0.250000X-0.225000X-0.250000X0.225000X-0.250000X0*%
%ADD48R,1.000000X1.900000*%
%ADD49C,0.300000*%
%ADD50RoundRect,0.052500X0.222500X-0.122500X0.222500X0.122500X-0.222500X0.122500X-0.222500X-0.122500X0*%
%ADD51FreePoly0,90.000000*%
%ADD52RoundRect,0.150000X0.150000X-0.587500X0.150000X0.587500X-0.150000X0.587500X-0.150000X-0.587500X0*%
%ADD53C,3.450000*%
%ADD54R,2.000000X2.000000*%
%ADD55C,2.000000*%
G04 APERTURE END LIST*
D10*
X53427693Y-54420038D02*
X53332455Y-54372419D01*
X53332455Y-54372419D02*
X53189598Y-54372419D01*
X53189598Y-54372419D02*
X53046741Y-54420038D01*
X53046741Y-54420038D02*
X52951503Y-54515276D01*
X52951503Y-54515276D02*
X52903884Y-54610514D01*
X52903884Y-54610514D02*
X52856265Y-54800990D01*
X52856265Y-54800990D02*
X52856265Y-54943847D01*
X52856265Y-54943847D02*
X52903884Y-55134323D01*
X52903884Y-55134323D02*
X52951503Y-55229561D01*
X52951503Y-55229561D02*
X53046741Y-55324800D01*
X53046741Y-55324800D02*
X53189598Y-55372419D01*
X53189598Y-55372419D02*
X53284836Y-55372419D01*
X53284836Y-55372419D02*
X53427693Y-55324800D01*
X53427693Y-55324800D02*
X53475312Y-55277180D01*
X53475312Y-55277180D02*
X53475312Y-54943847D01*
X53475312Y-54943847D02*
X53284836Y-54943847D01*
X53903884Y-55372419D02*
X53903884Y-54372419D01*
X53903884Y-54372419D02*
X54475312Y-55372419D01*
X54475312Y-55372419D02*
X54475312Y-54372419D01*
X54951503Y-55372419D02*
X54951503Y-54372419D01*
X54951503Y-54372419D02*
X55189598Y-54372419D01*
X55189598Y-54372419D02*
X55332455Y-54420038D01*
X55332455Y-54420038D02*
X55427693Y-54515276D01*
X55427693Y-54515276D02*
X55475312Y-54610514D01*
X55475312Y-54610514D02*
X55522931Y-54800990D01*
X55522931Y-54800990D02*
X55522931Y-54943847D01*
X55522931Y-54943847D02*
X55475312Y-55134323D01*
X55475312Y-55134323D02*
X55427693Y-55229561D01*
X55427693Y-55229561D02*
X55332455Y-55324800D01*
X55332455Y-55324800D02*
X55189598Y-55372419D01*
X55189598Y-55372419D02*
X54951503Y-55372419D01*
X53108646Y-51672419D02*
X53727693Y-51672419D01*
X53727693Y-51672419D02*
X53394360Y-52053371D01*
X53394360Y-52053371D02*
X53537217Y-52053371D01*
X53537217Y-52053371D02*
X53632455Y-52100990D01*
X53632455Y-52100990D02*
X53680074Y-52148609D01*
X53680074Y-52148609D02*
X53727693Y-52243847D01*
X53727693Y-52243847D02*
X53727693Y-52481942D01*
X53727693Y-52481942D02*
X53680074Y-52577180D01*
X53680074Y-52577180D02*
X53632455Y-52624800D01*
X53632455Y-52624800D02*
X53537217Y-52672419D01*
X53537217Y-52672419D02*
X53251503Y-52672419D01*
X53251503Y-52672419D02*
X53156265Y-52624800D01*
X53156265Y-52624800D02*
X53108646Y-52577180D01*
X54013408Y-51672419D02*
X54346741Y-52672419D01*
X54346741Y-52672419D02*
X54680074Y-51672419D01*
X54918170Y-51672419D02*
X55537217Y-51672419D01*
X55537217Y-51672419D02*
X55203884Y-52053371D01*
X55203884Y-52053371D02*
X55346741Y-52053371D01*
X55346741Y-52053371D02*
X55441979Y-52100990D01*
X55441979Y-52100990D02*
X55489598Y-52148609D01*
X55489598Y-52148609D02*
X55537217Y-52243847D01*
X55537217Y-52243847D02*
X55537217Y-52481942D01*
X55537217Y-52481942D02*
X55489598Y-52577180D01*
X55489598Y-52577180D02*
X55441979Y-52624800D01*
X55441979Y-52624800D02*
X55346741Y-52672419D01*
X55346741Y-52672419D02*
X55061027Y-52672419D01*
X55061027Y-52672419D02*
X54965789Y-52624800D01*
X54965789Y-52624800D02*
X54918170Y-52577180D01*
X87003884Y-89290054D02*
X87003884Y-88290054D01*
X87003884Y-88290054D02*
X87575312Y-89290054D01*
X87575312Y-89290054D02*
X87575312Y-88290054D01*
X88622931Y-89290054D02*
X88289598Y-88813863D01*
X88051503Y-89290054D02*
X88051503Y-88290054D01*
X88051503Y-88290054D02*
X88432455Y-88290054D01*
X88432455Y-88290054D02*
X88527693Y-88337673D01*
X88527693Y-88337673D02*
X88575312Y-88385292D01*
X88575312Y-88385292D02*
X88622931Y-88480530D01*
X88622931Y-88480530D02*
X88622931Y-88623387D01*
X88622931Y-88623387D02*
X88575312Y-88718625D01*
X88575312Y-88718625D02*
X88527693Y-88766244D01*
X88527693Y-88766244D02*
X88432455Y-88813863D01*
X88432455Y-88813863D02*
X88051503Y-88813863D01*
X89003884Y-89242435D02*
X89146741Y-89290054D01*
X89146741Y-89290054D02*
X89384836Y-89290054D01*
X89384836Y-89290054D02*
X89480074Y-89242435D01*
X89480074Y-89242435D02*
X89527693Y-89194815D01*
X89527693Y-89194815D02*
X89575312Y-89099577D01*
X89575312Y-89099577D02*
X89575312Y-89004339D01*
X89575312Y-89004339D02*
X89527693Y-88909101D01*
X89527693Y-88909101D02*
X89480074Y-88861482D01*
X89480074Y-88861482D02*
X89384836Y-88813863D01*
X89384836Y-88813863D02*
X89194360Y-88766244D01*
X89194360Y-88766244D02*
X89099122Y-88718625D01*
X89099122Y-88718625D02*
X89051503Y-88671006D01*
X89051503Y-88671006D02*
X89003884Y-88575768D01*
X89003884Y-88575768D02*
X89003884Y-88480530D01*
X89003884Y-88480530D02*
X89051503Y-88385292D01*
X89051503Y-88385292D02*
X89099122Y-88337673D01*
X89099122Y-88337673D02*
X89194360Y-88290054D01*
X89194360Y-88290054D02*
X89432455Y-88290054D01*
X89432455Y-88290054D02*
X89575312Y-88337673D01*
X89861027Y-88290054D02*
X90432455Y-88290054D01*
X90146741Y-89290054D02*
X90146741Y-88290054D01*
X66856265Y-72324800D02*
X66999122Y-72372419D01*
X66999122Y-72372419D02*
X67237217Y-72372419D01*
X67237217Y-72372419D02*
X67332455Y-72324800D01*
X67332455Y-72324800D02*
X67380074Y-72277180D01*
X67380074Y-72277180D02*
X67427693Y-72181942D01*
X67427693Y-72181942D02*
X67427693Y-72086704D01*
X67427693Y-72086704D02*
X67380074Y-71991466D01*
X67380074Y-71991466D02*
X67332455Y-71943847D01*
X67332455Y-71943847D02*
X67237217Y-71896228D01*
X67237217Y-71896228D02*
X67046741Y-71848609D01*
X67046741Y-71848609D02*
X66951503Y-71800990D01*
X66951503Y-71800990D02*
X66903884Y-71753371D01*
X66903884Y-71753371D02*
X66856265Y-71658133D01*
X66856265Y-71658133D02*
X66856265Y-71562895D01*
X66856265Y-71562895D02*
X66903884Y-71467657D01*
X66903884Y-71467657D02*
X66951503Y-71420038D01*
X66951503Y-71420038D02*
X67046741Y-71372419D01*
X67046741Y-71372419D02*
X67284836Y-71372419D01*
X67284836Y-71372419D02*
X67427693Y-71420038D01*
X67761027Y-71372419D02*
X67999122Y-72372419D01*
X67999122Y-72372419D02*
X68189598Y-71658133D01*
X68189598Y-71658133D02*
X68380074Y-72372419D01*
X68380074Y-72372419D02*
X68618170Y-71372419D01*
X68999122Y-72372419D02*
X68999122Y-71372419D01*
X68999122Y-71372419D02*
X69237217Y-71372419D01*
X69237217Y-71372419D02*
X69380074Y-71420038D01*
X69380074Y-71420038D02*
X69475312Y-71515276D01*
X69475312Y-71515276D02*
X69522931Y-71610514D01*
X69522931Y-71610514D02*
X69570550Y-71800990D01*
X69570550Y-71800990D02*
X69570550Y-71943847D01*
X69570550Y-71943847D02*
X69522931Y-72134323D01*
X69522931Y-72134323D02*
X69475312Y-72229561D01*
X69475312Y-72229561D02*
X69380074Y-72324800D01*
X69380074Y-72324800D02*
X69237217Y-72372419D01*
X69237217Y-72372419D02*
X68999122Y-72372419D01*
X69999122Y-72372419D02*
X69999122Y-71372419D01*
X70665788Y-71372419D02*
X70856264Y-71372419D01*
X70856264Y-71372419D02*
X70951502Y-71420038D01*
X70951502Y-71420038D02*
X71046740Y-71515276D01*
X71046740Y-71515276D02*
X71094359Y-71705752D01*
X71094359Y-71705752D02*
X71094359Y-72039085D01*
X71094359Y-72039085D02*
X71046740Y-72229561D01*
X71046740Y-72229561D02*
X70951502Y-72324800D01*
X70951502Y-72324800D02*
X70856264Y-72372419D01*
X70856264Y-72372419D02*
X70665788Y-72372419D01*
X70665788Y-72372419D02*
X70570550Y-72324800D01*
X70570550Y-72324800D02*
X70475312Y-72229561D01*
X70475312Y-72229561D02*
X70427693Y-72039085D01*
X70427693Y-72039085D02*
X70427693Y-71705752D01*
X70427693Y-71705752D02*
X70475312Y-71515276D01*
X70475312Y-71515276D02*
X70570550Y-71420038D01*
X70570550Y-71420038D02*
X70665788Y-71372419D01*
X58637217Y-73148609D02*
X58780074Y-73196228D01*
X58780074Y-73196228D02*
X58827693Y-73243847D01*
X58827693Y-73243847D02*
X58875312Y-73339085D01*
X58875312Y-73339085D02*
X58875312Y-73481942D01*
X58875312Y-73481942D02*
X58827693Y-73577180D01*
X58827693Y-73577180D02*
X58780074Y-73624800D01*
X58780074Y-73624800D02*
X58684836Y-73672419D01*
X58684836Y-73672419D02*
X58303884Y-73672419D01*
X58303884Y-73672419D02*
X58303884Y-72672419D01*
X58303884Y-72672419D02*
X58637217Y-72672419D01*
X58637217Y-72672419D02*
X58732455Y-72720038D01*
X58732455Y-72720038D02*
X58780074Y-72767657D01*
X58780074Y-72767657D02*
X58827693Y-72862895D01*
X58827693Y-72862895D02*
X58827693Y-72958133D01*
X58827693Y-72958133D02*
X58780074Y-73053371D01*
X58780074Y-73053371D02*
X58732455Y-73100990D01*
X58732455Y-73100990D02*
X58637217Y-73148609D01*
X58637217Y-73148609D02*
X58303884Y-73148609D01*
X59446741Y-73672419D02*
X59351503Y-73624800D01*
X59351503Y-73624800D02*
X59303884Y-73577180D01*
X59303884Y-73577180D02*
X59256265Y-73481942D01*
X59256265Y-73481942D02*
X59256265Y-73196228D01*
X59256265Y-73196228D02*
X59303884Y-73100990D01*
X59303884Y-73100990D02*
X59351503Y-73053371D01*
X59351503Y-73053371D02*
X59446741Y-73005752D01*
X59446741Y-73005752D02*
X59589598Y-73005752D01*
X59589598Y-73005752D02*
X59684836Y-73053371D01*
X59684836Y-73053371D02*
X59732455Y-73100990D01*
X59732455Y-73100990D02*
X59780074Y-73196228D01*
X59780074Y-73196228D02*
X59780074Y-73481942D01*
X59780074Y-73481942D02*
X59732455Y-73577180D01*
X59732455Y-73577180D02*
X59684836Y-73624800D01*
X59684836Y-73624800D02*
X59589598Y-73672419D01*
X59589598Y-73672419D02*
X59446741Y-73672419D01*
X60351503Y-73672419D02*
X60256265Y-73624800D01*
X60256265Y-73624800D02*
X60208646Y-73577180D01*
X60208646Y-73577180D02*
X60161027Y-73481942D01*
X60161027Y-73481942D02*
X60161027Y-73196228D01*
X60161027Y-73196228D02*
X60208646Y-73100990D01*
X60208646Y-73100990D02*
X60256265Y-73053371D01*
X60256265Y-73053371D02*
X60351503Y-73005752D01*
X60351503Y-73005752D02*
X60494360Y-73005752D01*
X60494360Y-73005752D02*
X60589598Y-73053371D01*
X60589598Y-73053371D02*
X60637217Y-73100990D01*
X60637217Y-73100990D02*
X60684836Y-73196228D01*
X60684836Y-73196228D02*
X60684836Y-73481942D01*
X60684836Y-73481942D02*
X60637217Y-73577180D01*
X60637217Y-73577180D02*
X60589598Y-73624800D01*
X60589598Y-73624800D02*
X60494360Y-73672419D01*
X60494360Y-73672419D02*
X60351503Y-73672419D01*
X60970551Y-73005752D02*
X61351503Y-73005752D01*
X61113408Y-72672419D02*
X61113408Y-73529561D01*
X61113408Y-73529561D02*
X61161027Y-73624800D01*
X61161027Y-73624800D02*
X61256265Y-73672419D01*
X61256265Y-73672419D02*
X61351503Y-73672419D01*
X62399122Y-72624800D02*
X61541980Y-73910514D01*
X62684837Y-73624800D02*
X62827694Y-73672419D01*
X62827694Y-73672419D02*
X63065789Y-73672419D01*
X63065789Y-73672419D02*
X63161027Y-73624800D01*
X63161027Y-73624800D02*
X63208646Y-73577180D01*
X63208646Y-73577180D02*
X63256265Y-73481942D01*
X63256265Y-73481942D02*
X63256265Y-73386704D01*
X63256265Y-73386704D02*
X63208646Y-73291466D01*
X63208646Y-73291466D02*
X63161027Y-73243847D01*
X63161027Y-73243847D02*
X63065789Y-73196228D01*
X63065789Y-73196228D02*
X62875313Y-73148609D01*
X62875313Y-73148609D02*
X62780075Y-73100990D01*
X62780075Y-73100990D02*
X62732456Y-73053371D01*
X62732456Y-73053371D02*
X62684837Y-72958133D01*
X62684837Y-72958133D02*
X62684837Y-72862895D01*
X62684837Y-72862895D02*
X62732456Y-72767657D01*
X62732456Y-72767657D02*
X62780075Y-72720038D01*
X62780075Y-72720038D02*
X62875313Y-72672419D01*
X62875313Y-72672419D02*
X63113408Y-72672419D01*
X63113408Y-72672419D02*
X63256265Y-72720038D01*
X63589599Y-72672419D02*
X63827694Y-73672419D01*
X63827694Y-73672419D02*
X64018170Y-72958133D01*
X64018170Y-72958133D02*
X64208646Y-73672419D01*
X64208646Y-73672419D02*
X64446742Y-72672419D01*
X65399122Y-73577180D02*
X65351503Y-73624800D01*
X65351503Y-73624800D02*
X65208646Y-73672419D01*
X65208646Y-73672419D02*
X65113408Y-73672419D01*
X65113408Y-73672419D02*
X64970551Y-73624800D01*
X64970551Y-73624800D02*
X64875313Y-73529561D01*
X64875313Y-73529561D02*
X64827694Y-73434323D01*
X64827694Y-73434323D02*
X64780075Y-73243847D01*
X64780075Y-73243847D02*
X64780075Y-73100990D01*
X64780075Y-73100990D02*
X64827694Y-72910514D01*
X64827694Y-72910514D02*
X64875313Y-72815276D01*
X64875313Y-72815276D02*
X64970551Y-72720038D01*
X64970551Y-72720038D02*
X65113408Y-72672419D01*
X65113408Y-72672419D02*
X65208646Y-72672419D01*
X65208646Y-72672419D02*
X65351503Y-72720038D01*
X65351503Y-72720038D02*
X65399122Y-72767657D01*
X66303884Y-73672419D02*
X65827694Y-73672419D01*
X65827694Y-73672419D02*
X65827694Y-72672419D01*
X66637218Y-73672419D02*
X66637218Y-72672419D01*
X67208646Y-73672419D02*
X66780075Y-73100990D01*
X67208646Y-72672419D02*
X66637218Y-73243847D01*
D11*
X71907956Y-84232947D02*
X72717479Y-84232947D01*
X72717479Y-84232947D02*
X72812717Y-84185328D01*
X72812717Y-84185328D02*
X72860337Y-84137709D01*
X72860337Y-84137709D02*
X72907956Y-84042471D01*
X72907956Y-84042471D02*
X72907956Y-83851995D01*
X72907956Y-83851995D02*
X72860337Y-83756757D01*
X72860337Y-83756757D02*
X72812717Y-83709138D01*
X72812717Y-83709138D02*
X72717479Y-83661519D01*
X72717479Y-83661519D02*
X71907956Y-83661519D01*
X72907956Y-82661519D02*
X72907956Y-83232947D01*
X72907956Y-82947233D02*
X71907956Y-82947233D01*
X71907956Y-82947233D02*
X72050813Y-83042471D01*
X72050813Y-83042471D02*
X72146051Y-83137709D01*
X72146051Y-83137709D02*
X72193670Y-83232947D01*
X47416666Y-62454819D02*
X47416666Y-63169104D01*
X47416666Y-63169104D02*
X47369047Y-63311961D01*
X47369047Y-63311961D02*
X47273809Y-63407200D01*
X47273809Y-63407200D02*
X47130952Y-63454819D01*
X47130952Y-63454819D02*
X47035714Y-63454819D01*
X48416666Y-63454819D02*
X47845238Y-63454819D01*
X48130952Y-63454819D02*
X48130952Y-62454819D01*
X48130952Y-62454819D02*
X48035714Y-62597676D01*
X48035714Y-62597676D02*
X47940476Y-62692914D01*
X47940476Y-62692914D02*
X47845238Y-62740533D01*
X53444932Y-57010667D02*
X53778265Y-58010667D01*
X53778265Y-58010667D02*
X54111598Y-57010667D01*
X54444932Y-57010667D02*
X54444932Y-57820190D01*
X54444932Y-57820190D02*
X54492551Y-57915428D01*
X54492551Y-57915428D02*
X54540170Y-57963048D01*
X54540170Y-57963048D02*
X54635408Y-58010667D01*
X54635408Y-58010667D02*
X54825884Y-58010667D01*
X54825884Y-58010667D02*
X54921122Y-57963048D01*
X54921122Y-57963048D02*
X54968741Y-57915428D01*
X54968741Y-57915428D02*
X55016360Y-57820190D01*
X55016360Y-57820190D02*
X55016360Y-57010667D01*
X55444932Y-57963048D02*
X55587789Y-58010667D01*
X55587789Y-58010667D02*
X55825884Y-58010667D01*
X55825884Y-58010667D02*
X55921122Y-57963048D01*
X55921122Y-57963048D02*
X55968741Y-57915428D01*
X55968741Y-57915428D02*
X56016360Y-57820190D01*
X56016360Y-57820190D02*
X56016360Y-57724952D01*
X56016360Y-57724952D02*
X55968741Y-57629714D01*
X55968741Y-57629714D02*
X55921122Y-57582095D01*
X55921122Y-57582095D02*
X55825884Y-57534476D01*
X55825884Y-57534476D02*
X55635408Y-57486857D01*
X55635408Y-57486857D02*
X55540170Y-57439238D01*
X55540170Y-57439238D02*
X55492551Y-57391619D01*
X55492551Y-57391619D02*
X55444932Y-57296381D01*
X55444932Y-57296381D02*
X55444932Y-57201143D01*
X55444932Y-57201143D02*
X55492551Y-57105905D01*
X55492551Y-57105905D02*
X55540170Y-57058286D01*
X55540170Y-57058286D02*
X55635408Y-57010667D01*
X55635408Y-57010667D02*
X55873503Y-57010667D01*
X55873503Y-57010667D02*
X56016360Y-57058286D01*
X56778265Y-57486857D02*
X56921122Y-57534476D01*
X56921122Y-57534476D02*
X56968741Y-57582095D01*
X56968741Y-57582095D02*
X57016360Y-57677333D01*
X57016360Y-57677333D02*
X57016360Y-57820190D01*
X57016360Y-57820190D02*
X56968741Y-57915428D01*
X56968741Y-57915428D02*
X56921122Y-57963048D01*
X56921122Y-57963048D02*
X56825884Y-58010667D01*
X56825884Y-58010667D02*
X56444932Y-58010667D01*
X56444932Y-58010667D02*
X56444932Y-57010667D01*
X56444932Y-57010667D02*
X56778265Y-57010667D01*
X56778265Y-57010667D02*
X56873503Y-57058286D01*
X56873503Y-57058286D02*
X56921122Y-57105905D01*
X56921122Y-57105905D02*
X56968741Y-57201143D01*
X56968741Y-57201143D02*
X56968741Y-57296381D01*
X56968741Y-57296381D02*
X56921122Y-57391619D01*
X56921122Y-57391619D02*
X56873503Y-57439238D01*
X56873503Y-57439238D02*
X56778265Y-57486857D01*
X56778265Y-57486857D02*
X56444932Y-57486857D01*
X56464819Y-95983333D02*
X57179104Y-95983333D01*
X57179104Y-95983333D02*
X57321961Y-96030952D01*
X57321961Y-96030952D02*
X57417200Y-96126190D01*
X57417200Y-96126190D02*
X57464819Y-96269047D01*
X57464819Y-96269047D02*
X57464819Y-96364285D01*
X56464819Y-95602380D02*
X56464819Y-94983333D01*
X56464819Y-94983333D02*
X56845771Y-95316666D01*
X56845771Y-95316666D02*
X56845771Y-95173809D01*
X56845771Y-95173809D02*
X56893390Y-95078571D01*
X56893390Y-95078571D02*
X56941009Y-95030952D01*
X56941009Y-95030952D02*
X57036247Y-94983333D01*
X57036247Y-94983333D02*
X57274342Y-94983333D01*
X57274342Y-94983333D02*
X57369580Y-95030952D01*
X57369580Y-95030952D02*
X57417200Y-95078571D01*
X57417200Y-95078571D02*
X57464819Y-95173809D01*
X57464819Y-95173809D02*
X57464819Y-95459523D01*
X57464819Y-95459523D02*
X57417200Y-95554761D01*
X57417200Y-95554761D02*
X57369580Y-95602380D01*
D12*
%TO.C,TP14*%
X102150000Y-65100000D02*
G75*
G02*
X100250000Y-65100000I-950000J0D01*
G01*
X100250000Y-65100000D02*
G75*
G02*
X102150000Y-65100000I950000J0D01*
G01*
%TO.C,R16*%
X83218743Y-95786699D02*
X83218743Y-96261215D01*
X84263743Y-95786699D02*
X84263743Y-96261215D01*
%TO.C,R19*%
X107406291Y-70508331D02*
X107406291Y-70033815D01*
X108451291Y-70508331D02*
X108451291Y-70033815D01*
%TO.C,C4*%
X93209271Y-68236025D02*
X93209271Y-67954865D01*
X94229271Y-68236025D02*
X94229271Y-67954865D01*
%TO.C,D1*%
X52500000Y-87640000D02*
X52500000Y-91650000D01*
X54500000Y-87640000D02*
X52500000Y-87640000D01*
X54500000Y-87640000D02*
X54500000Y-91650000D01*
%TO.C,R4*%
X55562258Y-63756082D02*
X55087742Y-63756082D01*
X55562258Y-64801082D02*
X55087742Y-64801082D01*
%TO.C,R24*%
X96263724Y-74489603D02*
X96738240Y-74489603D01*
X96263724Y-75534603D02*
X96738240Y-75534603D01*
%TO.C,R15*%
X52022500Y-97237258D02*
X52022500Y-96762742D01*
X50977500Y-97237258D02*
X50977500Y-96762742D01*
%TO.C,C8*%
X105914470Y-70411836D02*
X105914470Y-70130676D01*
X106934470Y-70411836D02*
X106934470Y-70130676D01*
%TO.C,C1*%
X58058597Y-84967765D02*
X58058597Y-85248925D01*
X59078597Y-84967765D02*
X59078597Y-85248925D01*
%TO.C,U4*%
X99350000Y-74850000D02*
X102650000Y-74850000D01*
X102620000Y-79200000D02*
X99350000Y-79200000D01*
X103400000Y-79370000D02*
X102920000Y-79370000D01*
X103160000Y-79040000D01*
X103400000Y-79370000D01*
G36*
X103400000Y-79370000D02*
G01*
X102920000Y-79370000D01*
X103160000Y-79040000D01*
X103400000Y-79370000D01*
G37*
%TO.C,J12*%
X71973205Y-93810045D02*
X73528205Y-93810045D01*
X71973205Y-95730045D02*
X71973205Y-93810045D01*
X71973205Y-95730045D02*
X72258205Y-95730045D01*
X72258205Y-96960045D02*
X72258205Y-95730045D01*
X73428205Y-95730045D02*
X74798205Y-95730045D01*
X74698205Y-93810045D02*
X76068205Y-93810045D01*
X75968205Y-95730045D02*
X77338205Y-95730045D01*
X77238205Y-93810045D02*
X78608205Y-93810045D01*
X78508205Y-95730045D02*
X79878205Y-95730045D01*
X79778205Y-93810045D02*
X81148205Y-93810045D01*
X81048205Y-95730045D02*
X82603205Y-95730045D01*
X82318205Y-93810045D02*
X82603205Y-93810045D01*
X82603205Y-95730045D02*
X82603205Y-93810045D01*
%TO.C,C9*%
X102255277Y-81138590D02*
X102536437Y-81138590D01*
X102255277Y-82158590D02*
X102536437Y-82158590D01*
%TO.C,J11*%
X61044053Y-76153547D02*
X61679053Y-76153547D01*
X61044053Y-76788547D02*
X61044053Y-76153547D01*
D10*
%TO.C,SW2*%
X43000000Y-92000000D02*
X43000000Y-94000000D01*
X43000000Y-94000000D02*
X45800000Y-94000000D01*
X45800000Y-89850000D02*
X45800000Y-98150000D01*
X45800000Y-89850000D02*
X47000000Y-89850000D01*
X45800000Y-92000000D02*
X43000000Y-92000000D01*
X45800000Y-98150000D02*
X47000000Y-98150000D01*
X50200000Y-89850000D02*
X49000000Y-89850000D01*
X50200000Y-89850000D02*
X50200000Y-98150000D01*
X50200000Y-98150000D02*
X49000000Y-98150000D01*
D12*
%TO.C,C6*%
X91709271Y-68236025D02*
X91709271Y-67954865D01*
X92729271Y-68236025D02*
X92729271Y-67954865D01*
%TO.C,C2*%
X55005468Y-88989587D02*
X55005468Y-89270747D01*
X56025468Y-88989587D02*
X56025468Y-89270747D01*
D10*
%TO.C,SW4*%
X62993368Y-55006632D02*
X63795840Y-54204160D01*
X63000000Y-53000000D02*
X63000000Y-54000000D01*
X63000000Y-56000000D02*
X63000000Y-55000000D01*
X65000000Y-53000000D02*
X61000000Y-53000000D01*
X65000000Y-56000000D02*
X61000000Y-56000000D01*
X65250000Y-56750000D02*
X60750000Y-56750000D01*
X60750000Y-52250000D01*
X65250000Y-52250000D01*
X65250000Y-56750000D01*
D12*
%TO.C,R11*%
X98212258Y-64619531D02*
X97737742Y-64619531D01*
X98212258Y-65664531D02*
X97737742Y-65664531D01*
%TO.C,Y2*%
X71703205Y-90130045D02*
X78373205Y-90130045D01*
X78373205Y-86110045D02*
X71703205Y-86110045D01*
X78373205Y-90130045D02*
X78373205Y-86110045D01*
%TO.C,J18*%
X64884843Y-80381087D02*
X66114843Y-80381087D01*
X66114843Y-80096087D02*
X66114843Y-80381087D01*
X66114843Y-80096087D02*
X68034843Y-80096087D01*
X66114843Y-81551087D02*
X66114843Y-82921087D01*
X66114843Y-84091087D02*
X66114843Y-85461087D01*
X66114843Y-86631087D02*
X66114843Y-88001087D01*
X66114843Y-89171087D02*
X66114843Y-90726087D01*
X66114843Y-90726087D02*
X68034843Y-90726087D01*
X68034843Y-80096087D02*
X68034843Y-81651087D01*
X68034843Y-82821087D02*
X68034843Y-84191087D01*
X68034843Y-85361087D02*
X68034843Y-86731087D01*
X68034843Y-87901087D02*
X68034843Y-89271087D01*
X68034843Y-90441087D02*
X68034843Y-90726087D01*
%TO.C,C3*%
X76499626Y-84227603D02*
X76731296Y-84227603D01*
X76499626Y-84947603D02*
X76731296Y-84947603D01*
%TO.C,C16*%
X76483630Y-90546590D02*
X76715300Y-90546590D01*
X76483630Y-91266590D02*
X76715300Y-91266590D01*
%TO.C,C5*%
X97832484Y-67159695D02*
X98113644Y-67159695D01*
X97832484Y-66139695D02*
X98113644Y-66139695D01*
%TO.C,R9*%
X56642071Y-93783335D02*
X56642071Y-94257851D01*
X57687071Y-93783335D02*
X57687071Y-94257851D01*
%TO.C,R6*%
X97210972Y-90684779D02*
X96736456Y-90684779D01*
X97210972Y-91729779D02*
X96736456Y-91729779D01*
%TO.C,R3*%
X55087742Y-65256082D02*
X55562258Y-65256082D01*
X55087742Y-66301082D02*
X55562258Y-66301082D01*
D10*
%TO.C,SW1*%
X89993368Y-95006632D02*
X90795840Y-94204160D01*
X90000000Y-93000000D02*
X90000000Y-94000000D01*
X90000000Y-96000000D02*
X90000000Y-95000000D01*
X92000000Y-93000000D02*
X88000000Y-93000000D01*
X92000000Y-96000000D02*
X88000000Y-96000000D01*
X92250000Y-96750000D02*
X87750000Y-96750000D01*
X87750000Y-92250000D01*
X92250000Y-92250000D01*
X92250000Y-96750000D01*
D12*
%TO.C,J16*%
X71802435Y-67881799D02*
X71802435Y-69801799D01*
X72087435Y-69801799D02*
X71802435Y-69801799D01*
X73357435Y-67881799D02*
X71802435Y-67881799D01*
X74627435Y-69801799D02*
X73257435Y-69801799D01*
X75897435Y-67881799D02*
X74527435Y-67881799D01*
X77167435Y-69801799D02*
X75797435Y-69801799D01*
X78437435Y-67881799D02*
X77067435Y-67881799D01*
X79707435Y-69801799D02*
X78337435Y-69801799D01*
X80977435Y-67881799D02*
X79607435Y-67881799D01*
X82147435Y-66651799D02*
X82147435Y-67881799D01*
X82432435Y-67881799D02*
X82147435Y-67881799D01*
X82432435Y-67881799D02*
X82432435Y-69801799D01*
X82432435Y-69801799D02*
X80877435Y-69801799D01*
D10*
%TO.C,SW3*%
X99493368Y-95006632D02*
X100295840Y-94204160D01*
X99500000Y-93000000D02*
X99500000Y-94000000D01*
X99500000Y-96000000D02*
X99500000Y-95000000D01*
X101500000Y-93000000D02*
X97500000Y-93000000D01*
X101500000Y-96000000D02*
X97500000Y-96000000D01*
X101750000Y-96750000D02*
X97250000Y-96750000D01*
X97250000Y-92250000D01*
X101750000Y-92250000D01*
X101750000Y-96750000D01*
D12*
%TO.C,C10*%
X96362822Y-73001538D02*
X96643982Y-73001538D01*
X96362822Y-74021538D02*
X96643982Y-74021538D01*
D10*
%TO.C,SW5*%
X72493368Y-55006632D02*
X73295840Y-54204160D01*
X72500000Y-53000000D02*
X72500000Y-54000000D01*
X72500000Y-56000000D02*
X72500000Y-55000000D01*
X74500000Y-53000000D02*
X70500000Y-53000000D01*
X74500000Y-56000000D02*
X70500000Y-56000000D01*
X74750000Y-56750000D02*
X70250000Y-56750000D01*
X70250000Y-52250000D01*
X74750000Y-52250000D01*
X74750000Y-56750000D01*
D12*
%TO.C,J15*%
X86167426Y-69038268D02*
X86167426Y-68753268D01*
X86167426Y-71578268D02*
X86167426Y-70208268D01*
X86167426Y-74118268D02*
X86167426Y-72748268D01*
X86167426Y-76658268D02*
X86167426Y-75288268D01*
X86167426Y-79383268D02*
X86167426Y-77828268D01*
X88087426Y-68753268D02*
X86167426Y-68753268D01*
X88087426Y-70308268D02*
X88087426Y-68753268D01*
X88087426Y-72848268D02*
X88087426Y-71478268D01*
X88087426Y-75388268D02*
X88087426Y-74018268D01*
X88087426Y-77928268D02*
X88087426Y-76558268D01*
X88087426Y-79383268D02*
X86167426Y-79383268D01*
X88087426Y-79383268D02*
X88087426Y-79098268D01*
X89317426Y-79098268D02*
X88087426Y-79098268D01*
%TO.C,J14*%
X86161121Y-80627635D02*
X86161121Y-80342635D01*
X86161121Y-83167635D02*
X86161121Y-81797635D01*
X86161121Y-85707635D02*
X86161121Y-84337635D01*
X86161121Y-88247635D02*
X86161121Y-86877635D01*
X86161121Y-90972635D02*
X86161121Y-89417635D01*
X88081121Y-80342635D02*
X86161121Y-80342635D01*
X88081121Y-81897635D02*
X88081121Y-80342635D01*
X88081121Y-84437635D02*
X88081121Y-83067635D01*
X88081121Y-86977635D02*
X88081121Y-85607635D01*
X88081121Y-89517635D02*
X88081121Y-88147635D01*
X88081121Y-90972635D02*
X86161121Y-90972635D01*
X88081121Y-90972635D02*
X88081121Y-90687635D01*
X89311121Y-90687635D02*
X88081121Y-90687635D01*
%TO.C,TH1*%
X105477500Y-52937742D02*
X105477500Y-53412258D01*
X106522500Y-52937742D02*
X106522500Y-53412258D01*
%TO.C,R14*%
X76273164Y-64675078D02*
X75798648Y-64675078D01*
X76273164Y-65720078D02*
X75798648Y-65720078D01*
%TO.C,R23*%
X96267354Y-76001800D02*
X96741870Y-76001800D01*
X96267354Y-77046800D02*
X96741870Y-77046800D01*
%TO.C,U1*%
X73343137Y-75361043D02*
X73793137Y-75361043D01*
X73343137Y-75811043D02*
X73343137Y-75361043D01*
X73343137Y-82581043D02*
X73343137Y-82131043D01*
X73793137Y-82581043D02*
X73343137Y-82581043D01*
X80113137Y-75361043D02*
X80563137Y-75361043D01*
X80563137Y-75361043D02*
X80563137Y-75811043D01*
X80563137Y-82131043D02*
X80563137Y-82581043D01*
X80563137Y-82581043D02*
X80113137Y-82581043D01*
X73793137Y-83221043D02*
X73323137Y-83561043D01*
X73323137Y-82881043D01*
X73793137Y-83221043D01*
G36*
X73793137Y-83221043D02*
G01*
X73323137Y-83561043D01*
X73323137Y-82881043D01*
X73793137Y-83221043D01*
G37*
%TO.C,U3*%
X53010277Y-84560743D02*
X53060277Y-84560743D01*
X53010277Y-86380743D02*
X53010277Y-84560743D01*
X53060277Y-86380743D02*
X53010277Y-86380743D01*
X54960277Y-86380743D02*
X54180277Y-86380743D01*
X56080277Y-84560743D02*
X56130277Y-84560743D01*
X56130277Y-84560743D02*
X56130277Y-86380743D01*
X56130277Y-86380743D02*
X56080277Y-86380743D01*
X56410277Y-84260743D02*
X56080277Y-84020743D01*
X56410277Y-83780743D01*
X56410277Y-84260743D01*
G36*
X56410277Y-84260743D02*
G01*
X56080277Y-84020743D01*
X56410277Y-83780743D01*
X56410277Y-84260743D01*
G37*
%TO.C,J17*%
X64880811Y-68799294D02*
X66110811Y-68799294D01*
X66110811Y-68514294D02*
X66110811Y-68799294D01*
X66110811Y-68514294D02*
X68030811Y-68514294D01*
X66110811Y-69969294D02*
X66110811Y-71339294D01*
X66110811Y-72509294D02*
X66110811Y-73879294D01*
X66110811Y-75049294D02*
X66110811Y-76419294D01*
X66110811Y-77589294D02*
X66110811Y-79144294D01*
X66110811Y-79144294D02*
X68030811Y-79144294D01*
X68030811Y-68514294D02*
X68030811Y-70069294D01*
X68030811Y-71239294D02*
X68030811Y-72609294D01*
X68030811Y-73779294D02*
X68030811Y-75149294D01*
X68030811Y-76319294D02*
X68030811Y-77689294D01*
X68030811Y-78859294D02*
X68030811Y-79144294D01*
%TO.C,C15*%
X73449066Y-90546590D02*
X73217396Y-90546590D01*
X73449066Y-91266590D02*
X73217396Y-91266590D01*
%TO.C,C14*%
X80350054Y-85686453D02*
X80118384Y-85686453D01*
X80350054Y-86406453D02*
X80118384Y-86406453D01*
%TO.C,TP15*%
X77008842Y-63010088D02*
G75*
G02*
X75108842Y-63010088I-950000J0D01*
G01*
X75108842Y-63010088D02*
G75*
G02*
X77008842Y-63010088I950000J0D01*
G01*
D13*
%TO.C,J1*%
X45150000Y-58530000D02*
X46530000Y-58530000D01*
X45150000Y-67470000D02*
X45150000Y-58530000D01*
X45150000Y-67470000D02*
X46530000Y-67470000D01*
X50560000Y-58530000D02*
X48970000Y-58530000D01*
X50560000Y-67470000D02*
X48970000Y-67470000D01*
D12*
%TO.C,J13*%
X55670000Y-56120000D02*
X58330000Y-56120000D01*
X55670000Y-53520000D02*
X55670000Y-56120000D01*
X55670000Y-53520000D02*
X58330000Y-53520000D01*
X58330000Y-53520000D02*
X58330000Y-56120000D01*
X57000000Y-50920000D02*
X58330000Y-50920000D01*
X58330000Y-50920000D02*
X58330000Y-52250000D01*
%TO.C,R22*%
X102159422Y-79601412D02*
X102633938Y-79601412D01*
X102159422Y-80646412D02*
X102633938Y-80646412D01*
%TO.C,D2*%
X52310920Y-96191504D02*
X52310920Y-98476504D01*
X52310920Y-98476504D02*
X53780920Y-98476504D01*
X53780920Y-98476504D02*
X53780920Y-96191504D01*
%TO.C,R21*%
X106937742Y-74977500D02*
X107412258Y-74977500D01*
X106937742Y-76022500D02*
X107412258Y-76022500D01*
%TO.C,R20*%
X107406291Y-73029955D02*
X107406291Y-73504471D01*
X108451291Y-73029955D02*
X108451291Y-73504471D01*
%TO.C,R8*%
X56643789Y-97506073D02*
X56643789Y-97031557D01*
X57688789Y-97506073D02*
X57688789Y-97031557D01*
%TO.C,VUSB*%
X56228265Y-59203848D02*
G75*
G02*
X54328265Y-59203848I-950000J0D01*
G01*
X54328265Y-59203848D02*
G75*
G02*
X56228265Y-59203848I950000J0D01*
G01*
D10*
%TO.C,XTAL1*%
X79400000Y-88700000D02*
X79400000Y-88100000D01*
X80377929Y-88033119D02*
X80483775Y-88174247D01*
X80401795Y-88551771D02*
X80877468Y-88207510D01*
X80450000Y-86800000D02*
X80850000Y-86800000D01*
X80450000Y-90000000D02*
X80850000Y-90000000D01*
X80483775Y-88174247D02*
X80273408Y-88333681D01*
X80483775Y-88174247D02*
X80704487Y-88002081D01*
X80797335Y-88592327D02*
X80565216Y-88764759D01*
X80797335Y-88592327D02*
X81042719Y-88413263D01*
X80916711Y-88751495D02*
X80797335Y-88592327D01*
X81900000Y-88700000D02*
X81900000Y-88100000D01*
D14*
X81930177Y-90545329D02*
G75*
G02*
X81680177Y-90545329I-125000J0D01*
G01*
X81680177Y-90545329D02*
G75*
G02*
X81930177Y-90545329I125000J0D01*
G01*
D12*
%TO.C,C11*%
X106508422Y-80554385D02*
X106227262Y-80554385D01*
X106508422Y-81574385D02*
X106227262Y-81574385D01*
%TO.C,J3*%
X58450000Y-94320000D02*
X61660000Y-94320000D01*
X58450000Y-96980000D02*
X58450000Y-94320000D01*
X58450000Y-96980000D02*
X59120000Y-96980000D01*
X59120000Y-98190000D02*
X59120000Y-96980000D01*
X60640000Y-96980000D02*
X64200000Y-96980000D01*
X63180000Y-94320000D02*
X66740000Y-94320000D01*
X65720000Y-96980000D02*
X68930000Y-96980000D01*
X68260000Y-94320000D02*
X68930000Y-94320000D01*
X68930000Y-96980000D02*
X68930000Y-94320000D01*
%TO.C,C7*%
X98119037Y-63118543D02*
X97837877Y-63118543D01*
X98119037Y-64138543D02*
X97837877Y-64138543D01*
%TO.C,MK1*%
D10*
X91975000Y-72900000D02*
X94025000Y-72900000D01*
X94025000Y-69950000D01*
X91975000Y-69950000D01*
X91975000Y-72900000D01*
D12*
%TO.C,R2*%
X55087742Y-60756082D02*
X55562258Y-60756082D01*
X55087742Y-61801082D02*
X55562258Y-61801082D01*
%TO.C,D3*%
X104787159Y-77554411D02*
X105787159Y-77554411D01*
X104787159Y-79074411D02*
X104787159Y-77554411D01*
X104837159Y-79074411D02*
X104787159Y-79074411D01*
X106737159Y-79074411D02*
X105957159Y-79074411D01*
X106907159Y-77554411D02*
X107907159Y-77554411D01*
X107907159Y-77554411D02*
X107907159Y-79074411D01*
X107907159Y-79074411D02*
X107857159Y-79074411D01*
X106297159Y-79854411D02*
X105967159Y-79614411D01*
X106297159Y-79374411D01*
X106297159Y-79854411D01*
G36*
X106297159Y-79854411D02*
G01*
X105967159Y-79614411D01*
X106297159Y-79374411D01*
X106297159Y-79854411D01*
G37*
%TO.C,C12*%
X83231243Y-93158352D02*
X83231243Y-92877192D01*
X84251243Y-93158352D02*
X84251243Y-92877192D01*
%TO.C,R13*%
X97738632Y-68656665D02*
X98213148Y-68656665D01*
X97738632Y-67611665D02*
X98213148Y-67611665D01*
%TO.C,R18*%
X104409006Y-70027908D02*
X104409006Y-70502424D01*
X105454006Y-70027908D02*
X105454006Y-70502424D01*
%TO.C,R12*%
X96230010Y-67640166D02*
X96230010Y-67165650D01*
X95185010Y-67640166D02*
X95185010Y-67165650D01*
%TO.C,C13*%
X80956442Y-90400294D02*
X81188112Y-90400294D01*
X80956442Y-91120294D02*
X81188112Y-91120294D01*
%TO.C,R5*%
X55087742Y-62256082D02*
X55562258Y-62256082D01*
X55087742Y-63301082D02*
X55562258Y-63301082D01*
%TO.C,R10*%
X103977500Y-52937742D02*
X103977500Y-53412258D01*
X105022500Y-52937742D02*
X105022500Y-53412258D01*
%TO.C,R1*%
X56531420Y-84921087D02*
X56531420Y-85395603D01*
X57576420Y-84921087D02*
X57576420Y-85395603D01*
%TD*%
%LPC*%
D15*
%TO.C,TP14*%
X101200000Y-65100000D03*
%TD*%
D16*
%TO.C,R16*%
X83741243Y-95198957D03*
X83741243Y-96848957D03*
%TD*%
D17*
%TO.C,R19*%
X107928791Y-71096073D03*
X107928791Y-69446073D03*
%TD*%
D18*
%TO.C,C4*%
X93719271Y-68870445D03*
X93719271Y-67320445D03*
%TD*%
D19*
%TO.C,D1*%
X53500000Y-88350000D03*
X53500000Y-91650000D03*
%TD*%
D20*
%TO.C,R4*%
X56150000Y-64278582D03*
X54500000Y-64278582D03*
%TD*%
D21*
%TO.C,R24*%
X95675982Y-75012103D03*
X97325982Y-75012103D03*
%TD*%
D17*
%TO.C,R15*%
X51500000Y-97825000D03*
X51500000Y-96175000D03*
%TD*%
D18*
%TO.C,C8*%
X106424470Y-71046256D03*
X106424470Y-69496256D03*
%TD*%
D22*
%TO.C,C1*%
X58568597Y-84333345D03*
X58568597Y-85883345D03*
%TD*%
D23*
%TO.C,U4*%
X103200000Y-78427000D03*
X103200000Y-77475000D03*
X103200000Y-76525000D03*
X103200000Y-75573000D03*
X98800000Y-75573000D03*
X98800000Y-76525000D03*
X98800000Y-77475000D03*
X98800000Y-78427000D03*
%TD*%
D24*
%TO.C,J12*%
X72843205Y-96120045D03*
X74113205Y-93420045D03*
X75383205Y-96120045D03*
X76653205Y-93420045D03*
X77923205Y-96120045D03*
X79193205Y-93420045D03*
X80463205Y-96120045D03*
X81733205Y-93420045D03*
%TD*%
D25*
%TO.C,C9*%
X101620857Y-81648590D03*
X103170857Y-81648590D03*
%TD*%
D26*
%TO.C,J11*%
X62314053Y-75518547D03*
X63330053Y-80598547D03*
X61298053Y-80598547D03*
D27*
X61679053Y-76788547D03*
X62949053Y-76788547D03*
X61679053Y-78058547D03*
X62949053Y-78058547D03*
X61679053Y-79328547D03*
X62949053Y-79328547D03*
%TD*%
D28*
%TO.C,SW2*%
X48000000Y-92000000D03*
X48000000Y-94000000D03*
X48000000Y-96000000D03*
D29*
X48000000Y-89850000D03*
X48000000Y-98150000D03*
%TD*%
D18*
%TO.C,C6*%
X92219271Y-68870445D03*
X92219271Y-67320445D03*
%TD*%
D22*
%TO.C,C2*%
X55515468Y-88355167D03*
X55515468Y-89905167D03*
%TD*%
D30*
%TO.C,SW4*%
X66000000Y-56000000D03*
X60000000Y-56000000D03*
X66000000Y-53000000D03*
X60000000Y-53000000D03*
%TD*%
D20*
%TO.C,R11*%
X98800000Y-65142031D03*
X97150000Y-65142031D03*
%TD*%
D31*
%TO.C,Y2*%
X77163205Y-88120045D03*
X72763205Y-88120045D03*
%TD*%
D32*
%TO.C,J18*%
X65724843Y-80966087D03*
X68424843Y-82236087D03*
X65724843Y-83506087D03*
X68424843Y-84776087D03*
X65724843Y-86046087D03*
X68424843Y-87316087D03*
X65724843Y-88586087D03*
X68424843Y-89856087D03*
%TD*%
D33*
%TO.C,C3*%
X76047961Y-84587603D03*
X77182961Y-84587603D03*
%TD*%
%TO.C,C16*%
X76031965Y-90906590D03*
X77166965Y-90906590D03*
%TD*%
D25*
%TO.C,C5*%
X97198064Y-66649695D03*
X98748064Y-66649695D03*
%TD*%
D16*
%TO.C,R9*%
X57164571Y-93195593D03*
X57164571Y-94845593D03*
%TD*%
D20*
%TO.C,R6*%
X97798714Y-91207279D03*
X96148714Y-91207279D03*
%TD*%
D21*
%TO.C,R3*%
X54500000Y-65778582D03*
X56150000Y-65778582D03*
%TD*%
D30*
%TO.C,SW1*%
X93000000Y-96000000D03*
X87000000Y-96000000D03*
X93000000Y-93000000D03*
X87000000Y-93000000D03*
%TD*%
D24*
%TO.C,J16*%
X81562435Y-67491799D03*
X80292435Y-70191799D03*
X79022435Y-67491799D03*
X77752435Y-70191799D03*
X76482435Y-67491799D03*
X75212435Y-70191799D03*
X73942435Y-67491799D03*
X72672435Y-70191799D03*
%TD*%
D30*
%TO.C,SW3*%
X102500000Y-96000000D03*
X96500000Y-96000000D03*
X102500000Y-93000000D03*
X96500000Y-93000000D03*
%TD*%
D25*
%TO.C,C10*%
X95728402Y-73511538D03*
X97278402Y-73511538D03*
%TD*%
D30*
%TO.C,SW5*%
X75500000Y-56000000D03*
X69500000Y-56000000D03*
X75500000Y-53000000D03*
X69500000Y-53000000D03*
%TD*%
D32*
%TO.C,J15*%
X88477426Y-78513268D03*
X85777426Y-77243268D03*
X88477426Y-75973268D03*
X85777426Y-74703268D03*
X88477426Y-73433268D03*
X85777426Y-72163268D03*
X88477426Y-70893268D03*
X85777426Y-69623268D03*
%TD*%
%TO.C,J14*%
X88471121Y-90102635D03*
X85771121Y-88832635D03*
X88471121Y-87562635D03*
X85771121Y-86292635D03*
X88471121Y-85022635D03*
X85771121Y-83752635D03*
X88471121Y-82482635D03*
X85771121Y-81212635D03*
%TD*%
D16*
%TO.C,TH1*%
X106000000Y-52350000D03*
X106000000Y-54000000D03*
%TD*%
D20*
%TO.C,R14*%
X76860906Y-65197578D03*
X75210906Y-65197578D03*
%TD*%
D21*
%TO.C,R23*%
X95679612Y-76524300D03*
X97329612Y-76524300D03*
%TD*%
D34*
%TO.C,U1*%
X74203137Y-83133543D03*
X74703137Y-83133543D03*
X75203137Y-83133543D03*
X75703137Y-83133543D03*
X76203137Y-83133543D03*
X76703137Y-83133543D03*
X77203137Y-83133543D03*
X77703137Y-83133543D03*
X78203137Y-83133543D03*
X78703137Y-83133543D03*
X79203137Y-83133543D03*
X79703137Y-83133543D03*
D35*
X81115637Y-81721043D03*
X81115637Y-81221043D03*
X81115637Y-80721043D03*
X81115637Y-80221043D03*
X81115637Y-79721043D03*
X81115637Y-79221043D03*
X81115637Y-78721043D03*
X81115637Y-78221043D03*
X81115637Y-77721043D03*
X81115637Y-77221043D03*
X81115637Y-76721043D03*
X81115637Y-76221043D03*
D34*
X79703137Y-74808543D03*
X79203137Y-74808543D03*
X78703137Y-74808543D03*
X78203137Y-74808543D03*
X77703137Y-74808543D03*
X77203137Y-74808543D03*
X76703137Y-74808543D03*
X76203137Y-74808543D03*
X75703137Y-74808543D03*
X75203137Y-74808543D03*
X74703137Y-74808543D03*
X74203137Y-74808543D03*
D35*
X72790637Y-76221043D03*
X72790637Y-76721043D03*
X72790637Y-77221043D03*
X72790637Y-77721043D03*
X72790637Y-78221043D03*
X72790637Y-78721043D03*
X72790637Y-79221043D03*
X72790637Y-79721043D03*
X72790637Y-80221043D03*
X72790637Y-80721043D03*
X72790637Y-81221043D03*
X72790637Y-81721043D03*
%TD*%
D36*
%TO.C,U3*%
X55520277Y-84333243D03*
X54570277Y-84333243D03*
X53620277Y-84333243D03*
X53620277Y-86608243D03*
X55520277Y-86608243D03*
%TD*%
D32*
%TO.C,J17*%
X65720811Y-69384294D03*
X68420811Y-70654294D03*
X65720811Y-71924294D03*
X68420811Y-73194294D03*
X65720811Y-74464294D03*
X68420811Y-75734294D03*
X65720811Y-77004294D03*
X68420811Y-78274294D03*
%TD*%
D37*
%TO.C,C15*%
X73900731Y-90906590D03*
X72765731Y-90906590D03*
%TD*%
%TO.C,C14*%
X80801719Y-86046453D03*
X79666719Y-86046453D03*
%TD*%
D15*
%TO.C,TP15*%
X76058842Y-63010088D03*
%TD*%
D38*
%TO.C,J1*%
X51430000Y-60110000D03*
X51430000Y-65890000D03*
D39*
X52500000Y-59800000D03*
X52500000Y-60600000D03*
D40*
X52500000Y-61750000D03*
X52500000Y-62750000D03*
X52500000Y-63250000D03*
X52500000Y-64250000D03*
D39*
X52500000Y-66200000D03*
X52500000Y-65400000D03*
D40*
X52500000Y-64750000D03*
X52500000Y-63750000D03*
X52500000Y-62250000D03*
X52500000Y-61250000D03*
D41*
X51930000Y-58680000D03*
X51930000Y-67320000D03*
D42*
X47750000Y-58680000D03*
X47750000Y-67320000D03*
%TD*%
D43*
%TO.C,J13*%
X57000000Y-52250000D03*
D44*
X57000000Y-54790000D03*
%TD*%
D21*
%TO.C,R22*%
X101571680Y-80123912D03*
X103221680Y-80123912D03*
%TD*%
D45*
%TO.C,D2*%
X53045920Y-97779004D03*
X53045920Y-96204004D03*
%TD*%
D21*
%TO.C,R21*%
X106350000Y-75500000D03*
X108000000Y-75500000D03*
%TD*%
D16*
%TO.C,R20*%
X107928791Y-72442213D03*
X107928791Y-74092213D03*
%TD*%
D17*
%TO.C,R8*%
X57166289Y-98093815D03*
X57166289Y-96443815D03*
%TD*%
D15*
%TO.C,VUSB*%
X55278265Y-59203848D03*
%TD*%
D46*
%TO.C,XTAL1*%
X81500000Y-89500000D03*
X79800000Y-89500000D03*
X79800000Y-87300000D03*
X81500000Y-87300000D03*
%TD*%
D47*
%TO.C,C11*%
X107142842Y-81064385D03*
X105592842Y-81064385D03*
%TD*%
D48*
%TO.C,J3*%
X59880000Y-97300000D03*
X62420000Y-94000000D03*
X64960000Y-97300000D03*
X67500000Y-94000000D03*
%TD*%
D47*
%TO.C,C7*%
X98753457Y-63628543D03*
X97203457Y-63628543D03*
%TD*%
D49*
%TO.C,MK1*%
X93000000Y-72000000D03*
D50*
X93525000Y-70325000D03*
X93525000Y-70975000D03*
D51*
X93000000Y-71475000D03*
D50*
X92475000Y-70975000D03*
X92475000Y-70325000D03*
%TD*%
D21*
%TO.C,R2*%
X54500000Y-61278582D03*
X56150000Y-61278582D03*
%TD*%
D52*
%TO.C,D3*%
X105397159Y-79251911D03*
X107297159Y-79251911D03*
X106347159Y-77376911D03*
%TD*%
D18*
%TO.C,C12*%
X83741243Y-93792772D03*
X83741243Y-92242772D03*
%TD*%
D21*
%TO.C,R13*%
X97150890Y-68134165D03*
X98800890Y-68134165D03*
%TD*%
D16*
%TO.C,R18*%
X104931506Y-69440166D03*
X104931506Y-71090166D03*
%TD*%
D17*
%TO.C,R12*%
X95707510Y-68227908D03*
X95707510Y-66577908D03*
%TD*%
D33*
%TO.C,C13*%
X80504777Y-90760294D03*
X81639777Y-90760294D03*
%TD*%
D21*
%TO.C,R5*%
X54500000Y-62778582D03*
X56150000Y-62778582D03*
%TD*%
D16*
%TO.C,R10*%
X104500000Y-52350000D03*
X104500000Y-54000000D03*
%TD*%
%TO.C,R1*%
X57053920Y-84333345D03*
X57053920Y-85983345D03*
%TD*%
D53*
%TO.C,BT1*%
X92110000Y-85000000D03*
D54*
X53500000Y-93700000D03*
D55*
X53500000Y-81000000D03*
%TD*%
%LPD*%
M02*
